<svg width="19" height="21" viewBox="0 0 19 21" fill="none" xmlns="http://www.w3.org/2000/svg">
<path d="M1 8.73574C1 4.46344 4.6453 1 9.14288 1C13.6405 1 17.2858 4.46344 17.2858 8.73574C17.2858 12.9755 14.6868 17.9223 10.6317 19.6906C10.1618 19.8946 9.65509 19.9998 9.14288 19.9998C8.63068 19.9998 8.12394 19.8946 7.65409 19.6906C3.59894 17.9236 1 12.9755 1 8.73574Z" stroke="#FF0C0C" stroke-width="2"/>
<path d="M9.14301 11.8573C10.6421 11.8573 11.8573 10.6421 11.8573 9.14301C11.8573 7.64394 10.6421 6.42871 9.14301 6.42871C7.64394 6.42871 6.42871 7.64394 6.42871 9.14301C6.42871 10.6421 7.64394 11.8573 9.14301 11.8573Z" stroke="#FF0C0C" stroke-width="2"/>
</svg>
