<svg width="12" height="12" viewBox="0 0 12 12" fill="none" xmlns="http://www.w3.org/2000/svg">
<path d="M11.7063 5.29246L6.70628 0.292461C6.61118 0.20142 6.49903 0.130055 6.37628 0.0824609C6.13282 -0.0175571 5.85974 -0.0175572 5.61628 0.0824608C5.49353 0.130055 5.38138 0.20142 5.28628 0.292461L0.286278 5.29246C0.19304 5.3857 0.119079 5.49639 0.0686187 5.61821C0.0181584 5.74003 -0.00781353 5.8706 -0.00781355 6.00246C-0.00781359 6.26876 0.0979744 6.52416 0.286278 6.71246C0.474582 6.90076 0.729976 7.00655 0.996278 7.00655C1.26258 7.00655 1.51797 6.90076 1.70628 6.71246L4.99628 3.41246L4.99628 11.0025C4.99628 11.2677 5.10163 11.522 5.28917 11.7096C5.47671 11.8971 5.73106 12.0025 5.99628 12.0025C6.26149 12.0025 6.51585 11.8971 6.70338 11.7096C6.89092 11.522 6.99628 11.2677 6.99628 11.0025L6.99628 3.41246L10.2863 6.71246C10.3792 6.80619 10.4898 6.88058 10.6117 6.93135C10.7336 6.98212 10.8643 7.00826 10.9963 7.00826C11.1283 7.00826 11.259 6.98212 11.3809 6.93135C11.5027 6.88058 11.6133 6.80619 11.7063 6.71246C11.8 6.6195 11.8744 6.5089 11.9252 6.38704C11.9759 6.26518 12.0021 6.13447 12.0021 6.00246C12.0021 5.87045 11.9759 5.73974 11.9252 5.61789C11.8744 5.49603 11.8 5.38543 11.7063 5.29246Z" fill="#56A2E9"/>
</svg>
