<svg width="45" height="45" viewBox="0 0 45 45" fill="none" xmlns="http://www.w3.org/2000/svg">
<rect width="31.1825" height="31.1825" rx="15.5912" transform="matrix(0.707595 -0.706619 0.707595 0.706619 0.65332 22.0339)" fill="#56A2E9"/>
<path d="M27.8262 22.2774L21.7045 28.2258C21.5903 28.3367 21.4548 28.4247 21.3056 28.4848C21.1565 28.5448 20.9966 28.5757 20.8352 28.5757C20.5092 28.5757 20.1965 28.4498 19.9659 28.2258C19.8518 28.1149 19.7612 27.9832 19.6994 27.8383C19.6376 27.6933 19.6058 27.538 19.6058 27.3811C19.6058 27.0643 19.7354 26.7605 19.9659 26.5365L25.2306 21.4328L19.9659 16.3291C19.8512 16.2185 19.7601 16.0869 19.6979 15.9419C19.6358 15.7969 19.6038 15.6414 19.6038 15.4844C19.6038 15.3273 19.6358 15.1718 19.6979 15.0269C19.7601 14.8819 19.8512 14.7503 19.9659 14.6397C20.0797 14.5282 20.2151 14.4397 20.3643 14.3793C20.5135 14.3189 20.6736 14.2878 20.8352 14.2878C20.9968 14.2878 21.1569 14.3189 21.306 14.3793C21.4552 14.4397 21.5907 14.5282 21.7045 14.6397L27.8262 20.5881C27.9409 20.6987 28.032 20.8303 28.0942 20.9752C28.1563 21.1202 28.1883 21.2757 28.1883 21.4328C28.1883 21.5898 28.1563 21.7453 28.0942 21.8903C28.032 22.0353 27.9409 22.1668 27.8262 22.2774Z" fill="white"/>
</svg>
