<svg width="45" height="45" viewBox="0 0 45 45" fill="none" xmlns="http://www.w3.org/2000/svg">
<rect width="31.1825" height="31.1825" rx="15.5912" transform="matrix(0.707595 -0.706619 0.707595 0.706619 0.288574 22.0339)" fill="black" fill-opacity="0.1"/>
<path d="M27.4614 22.2774L21.3397 28.2258C21.2256 28.3367 21.0901 28.4247 20.9409 28.4848C20.7918 28.5448 20.6319 28.5757 20.4705 28.5757C20.1444 28.5757 19.8317 28.4498 19.6012 28.2258C19.487 28.1149 19.3965 27.9832 19.3347 27.8383C19.2729 27.6933 19.2411 27.538 19.2411 27.3811C19.2411 27.0643 19.3706 26.7605 19.6012 26.5365L24.8658 21.4328L19.6012 16.3291C19.4864 16.2185 19.3953 16.0869 19.3332 15.9419C19.271 15.7969 19.239 15.6414 19.239 15.4844C19.239 15.3273 19.271 15.1718 19.3332 15.0269C19.3953 14.8819 19.4864 14.7503 19.6012 14.6397C19.715 14.5282 19.8504 14.4397 19.9996 14.3793C20.1488 14.3189 20.3088 14.2878 20.4704 14.2878C20.6321 14.2878 20.7921 14.3189 20.9413 14.3793C21.0905 14.4397 21.2259 14.5282 21.3397 14.6397L27.4614 20.5881C27.5762 20.6987 27.6673 20.8303 27.7294 20.9752C27.7916 21.1202 27.8236 21.2757 27.8236 21.4328C27.8236 21.5898 27.7916 21.7453 27.7294 21.8903C27.6673 22.0353 27.5762 22.1668 27.4614 22.2774Z" fill="white"/>
</svg>
