<svg width="18" height="18" viewBox="0 0 18 18" fill="none" xmlns="http://www.w3.org/2000/svg">
<path d="M17.0002 8.99986C17.0002 7.32826 16.4766 5.69865 15.5029 4.33989C14.5293 2.98113 13.1545 1.96149 11.5716 1.42419C9.9887 0.886876 8.27727 0.858888 6.67766 1.34415C5.07805 1.82941 3.67062 2.80355 2.65306 4.12974C1.63549 5.45594 1.0589 7.06756 1.00428 8.73826C0.949646 10.409 1.41972 12.0548 2.34848 13.4446C3.27724 14.8345 4.61802 15.8985 6.18251 16.4872C7.747 17.0759 9.4566 17.1598 11.0712 16.727" stroke="#FF0C0C" stroke-width="2" stroke-linecap="round"/>
<path d="M9.0009 12.5555C10.9646 12.5555 12.5565 10.9636 12.5565 8.99986C12.5565 7.03617 10.9646 5.44427 9.0009 5.44427C7.0372 5.44427 5.44531 7.03617 5.44531 8.99986C5.44531 10.9636 7.0372 12.5555 9.0009 12.5555Z" stroke="#FF0C0C" stroke-width="2"/>
<path d="M12.5547 6.33319V10.3332C12.5547 10.9226 12.7888 11.4878 13.2056 11.9046C13.6223 12.3213 14.1876 12.5555 14.7769 12.5555C15.3663 12.5555 15.9315 12.3213 16.3483 11.9046C16.765 11.4878 16.9992 10.9226 16.9992 10.3332V8.99988" stroke="#FF0C0C" stroke-width="2" stroke-linecap="round"/>
</svg>
