<svg width="29" height="19" viewBox="0 0 29 19" fill="none" xmlns="http://www.w3.org/2000/svg">
<path d="M28.6129 9.2056C28.5721 9.1111 27.5726 6.87581 25.3406 4.62477C23.2696 2.5385 19.7114 0.0500031 14.5002 0.0500031C9.28902 0.0500031 5.73081 2.5385 3.65979 4.62477C1.4278 6.87581 0.428331 9.10746 0.387487 9.2056C0.346418 9.29865 0.325195 9.39936 0.325195 9.50121C0.325195 9.60307 0.346418 9.70378 0.387487 9.79683C0.428331 9.89012 1.4278 12.1254 3.65979 14.3764C5.73081 16.4627 9.28902 18.95 14.5002 18.95C19.7114 18.95 23.2696 16.4627 25.3406 14.3764C27.5726 12.1254 28.5721 9.89375 28.6129 9.79683C28.654 9.70378 28.6752 9.60307 28.6752 9.50121C28.6752 9.39936 28.654 9.29865 28.6129 9.2056ZM14.5002 17.4962C10.7306 17.4962 7.43904 16.1126 4.71572 13.3854C3.57411 12.2412 2.60806 10.9316 1.84945 9.5C2.60785 8.0686 3.57392 6.75944 4.71572 5.61581C7.43904 2.88743 10.7306 1.50385 14.5002 1.50385C18.2698 1.50385 21.5614 2.88743 24.2847 5.61581C25.4265 6.75944 26.3925 8.0686 27.1509 9.5C26.3857 10.9793 22.5488 17.4962 14.5002 17.4962ZM14.5002 3.92693C13.4073 3.92693 12.3389 4.25378 11.4302 4.86616C10.5214 5.47854 9.81316 6.34893 9.39492 7.36728C8.97667 8.38563 8.86724 9.50618 9.08046 10.5873C9.29368 11.6683 9.81997 12.6614 10.5928 13.4408C11.3656 14.2202 12.3502 14.751 13.4221 14.966C14.4941 15.181 15.6051 15.0707 16.6149 14.6489C17.6246 14.227 18.4876 13.5127 19.0948 12.5962C19.702 11.6798 20.0261 10.6023 20.0261 9.5C20.0242 8.02252 19.4414 6.60611 18.4055 5.56137C17.3696 4.51663 15.9652 3.92885 14.5002 3.92693ZM14.5002 13.6192C13.6924 13.6192 12.9027 13.3776 12.231 12.925C11.5594 12.4724 11.0359 11.8291 10.7267 11.0764C10.4176 10.3237 10.3367 9.49543 10.4943 8.69638C10.6519 7.89733 11.0409 7.16335 11.6121 6.58727C12.1833 6.01118 12.9111 5.61886 13.7034 5.45992C14.4957 5.30098 15.3169 5.38256 16.0632 5.69433C16.8095 6.0061 17.4474 6.53408 17.8962 7.21148C18.345 7.88889 18.5846 8.6853 18.5846 9.5C18.5846 10.5925 18.1543 11.6402 17.3883 12.4127C16.6223 13.1852 15.5834 13.6192 14.5002 13.6192Z" fill="#56A2E9"/>
</svg>
