<svg width="11" height="11" viewBox="0 0 11 11" fill="none" xmlns="http://www.w3.org/2000/svg">
<path d="M6.15339 10.7291L10.7386 6.14952C10.8221 6.06241 10.8876 5.9597 10.9312 5.84727C11.0229 5.62428 11.0229 5.37416 10.9312 5.15117C10.8876 5.03874 10.8221 4.93603 10.7386 4.84892L6.15339 0.269362C6.06789 0.183964 5.96638 0.116222 5.85466 0.070005C5.74295 0.0237877 5.62321 -2.35027e-07 5.50229 -2.40313e-07C5.25808 -2.50988e-07 5.02387 0.0968922 4.85118 0.269362C4.6785 0.441831 4.58149 0.67575 4.58149 0.919659C4.58149 1.16357 4.6785 1.39749 4.85118 1.56996L7.87744 4.58331L0.917048 4.58331C0.673832 4.58331 0.440576 4.6798 0.268597 4.85157C0.0966175 5.02334 7.23914e-07 5.2563 7.13296e-07 5.49922C7.02678e-07 5.74213 0.0966174 5.9751 0.268597 6.14687C0.440576 6.31863 0.673832 6.41513 0.917048 6.41513L7.87744 6.41513L4.85118 9.42848C4.76523 9.51363 4.69701 9.61493 4.65045 9.72654C4.60389 9.83815 4.57992 9.95787 4.57992 10.0788C4.57992 10.1997 4.60389 10.3194 4.65045 10.431C4.69701 10.5426 4.76523 10.6439 4.85118 10.7291C4.93643 10.8149 5.03786 10.8831 5.14961 10.9296C5.26136 10.9761 5.38123 11 5.50229 11C5.62335 11 5.74321 10.9761 5.85496 10.9296C5.96671 10.8831 6.06814 10.8149 6.15339 10.7291Z" fill="#667179"/>
</svg>
