<svg width="58" height="58" viewBox="0 0 58 58" fill="none" xmlns="http://www.w3.org/2000/svg">
<rect width="40.3686" height="40.3686" rx="20.1843" transform="matrix(0.707595 -0.706619 0.707595 0.706619 0 28.5251)" fill="white" fill-opacity="0.5"/>
<path d="M35.1776 29.3434L27.2525 37.0441C27.1047 37.1877 26.9293 37.3016 26.7362 37.3794C26.5431 37.4571 26.3362 37.4971 26.1272 37.4971C25.7051 37.4971 25.3003 37.3341 25.0018 37.0441C24.854 36.9005 24.7368 36.73 24.6568 36.5424C24.5768 36.3548 24.5357 36.1537 24.5357 35.9506C24.5357 35.5405 24.7033 35.1471 25.0018 34.8571L31.8174 28.2499L25.0018 21.6427C24.8532 21.4995 24.7353 21.3292 24.6549 21.1415C24.5744 20.9538 24.533 20.7525 24.533 20.5492C24.533 20.3459 24.5744 20.1446 24.6549 19.9569C24.7353 19.7692 24.8532 19.5989 25.0018 19.4557C25.1492 19.3113 25.3245 19.1968 25.5176 19.1186C25.7108 19.0404 25.9179 19.0001 26.1272 19.0001C26.3364 19.0001 26.5436 19.0404 26.7367 19.1186C26.9299 19.1968 27.1052 19.3113 27.2525 19.4557L35.1776 27.1564C35.3262 27.2996 35.4441 27.4699 35.5246 27.6576C35.605 27.8453 35.6465 28.0466 35.6465 28.2499C35.6465 28.4532 35.605 28.6545 35.5246 28.8422C35.4441 29.0299 35.3262 29.2002 35.1776 29.3434Z" fill="#667989"/>
</svg>
