<svg width="12" height="12" viewBox="0 0 12 12" fill="none" xmlns="http://www.w3.org/2000/svg">
<path d="M6.70717 11.7141L11.7072 6.71409C11.7982 6.61899 11.8696 6.50684 11.9172 6.38409C12.0172 6.14063 12.0172 5.86755 11.9172 5.62409C11.8696 5.50134 11.7982 5.3892 11.7072 5.29409L6.70717 0.294091C6.61394 0.200853 6.50325 0.126892 6.38142 0.076432C6.2596 0.0259717 6.12903 -2.56287e-07 5.99717 -2.6205e-07C5.73087 -2.73691e-07 5.47548 0.105788 5.28717 0.294091C5.09887 0.482395 4.99308 0.73779 4.99308 1.00409C4.99308 1.27039 5.09887 1.52579 5.28717 1.71409L8.58717 5.00409L0.997174 5.00409C0.731957 5.00409 0.477603 5.10945 0.290066 5.29698C0.10253 5.48452 -0.00282599 5.73887 -0.002826 6.00409C-0.00282601 6.26931 0.10253 6.52366 0.290066 6.7112C0.477603 6.89873 0.731957 7.00409 0.997174 7.00409L8.58717 7.00409L5.28717 10.2941C5.19344 10.3871 5.11905 10.4977 5.06828 10.6195C5.01751 10.7414 4.99137 10.8721 4.99137 11.0041C4.99137 11.1361 5.01751 11.2668 5.06828 11.3887C5.11905 11.5105 5.19344 11.6211 5.28717 11.7141C5.38014 11.8078 5.49074 11.8822 5.6126 11.933C5.73446 11.9838 5.86516 12.0099 5.99717 12.0099C6.12919 12.0099 6.25989 11.9838 6.38175 11.933C6.50361 11.8822 6.61421 11.8078 6.70717 11.7141Z" fill="#CBCFD6"/>
</svg>
