<svg width="202" height="169" viewBox="0 0 202 169" fill="none" xmlns="http://www.w3.org/2000/svg">
<g opacity="0.3">
<path fill-rule="evenodd" clip-rule="evenodd" d="M137.153 145.849C132.373 150.246 127.21 154.931 121.57 157.99C119.466 159.137 117.363 159.998 115.164 160.858C110.002 162.866 106.369 164.491 102.067 168.124C101.398 168.697 100.729 168.602 99.9637 168.028C95.6617 164.395 92.0288 162.77 86.8663 160.762C84.6675 159.902 82.5643 159.042 80.461 157.894C74.8205 154.835 69.6581 150.151 64.878 145.753L59.0463 146.422L58.6639 145.275C55.7958 136.097 55.2222 126.25 60.9583 118.028L62.4879 115.83L63.444 118.411C65.834 125.199 69.7536 131.222 75.1073 136.097L76.8282 137.627L74.6293 138.392C72.8129 139.061 71.2833 140.112 70.1361 141.546L77.7842 144.988C81.0346 145.562 84.0939 147.378 87.4399 145.466C93.9408 141.833 94.5144 126.155 94.61 119.941L95.088 93.8413L95.3748 85.6196L97.0001 36.8628H86.8663C85.7191 36.8628 84.6675 35.9068 84.6675 34.664V30.1707C84.6675 29.0235 85.6235 27.9719 86.8663 27.9719H92.4112C89.0652 25.4863 86.9619 21.5666 86.9619 17.0733C86.9619 9.52082 93.0804 3.49792 100.537 3.49792C108.09 3.49792 114.113 9.61642 114.113 17.0733C114.113 21.5666 111.914 25.4863 108.663 27.9719H114.878C116.025 27.9719 117.076 28.9279 117.076 30.1707V34.7596C117.076 35.9068 116.12 36.9585 114.878 36.9585H104.839L106.751 94.0325L107.229 120.132C107.325 126.25 107.899 142.024 114.4 145.657C117.746 147.569 120.805 145.657 124.055 145.179L131.703 141.738C130.556 140.304 129.027 139.252 127.21 138.583L125.011 137.818L126.732 136.288C132.086 131.413 135.91 125.39 138.396 118.602L139.352 116.021L140.881 118.22C146.617 126.441 146.044 136.288 143.176 145.466L142.793 146.613L137.153 145.849ZM100.729 11.2416C103.979 11.2416 106.656 13.9185 106.656 17.1689C106.656 20.4194 103.979 23.0962 100.729 23.0962C97.4781 23.0962 94.8012 20.4194 94.8012 17.1689C94.8012 13.9185 97.4781 11.2416 100.729 11.2416Z" fill="#9D9D9D"/>
<path fill-rule="evenodd" clip-rule="evenodd" d="M101.111 34.473H103.597L105.222 85.7155L105.509 93.9372L105.987 120.036C106.56 155.505 120.232 147.092 124.629 146.327L133.998 142.12C132.564 139.826 130.556 138.105 127.88 137.149C133.425 131.987 137.44 125.868 139.925 118.889C144.514 125.486 145.375 134.185 142.029 144.893L136.675 144.224C131.321 149.195 126.254 153.688 120.901 156.652C114.4 160.189 109.046 160.285 101.207 166.881C101.016 166.977 101.111 166.977 100.92 166.786C93.0807 160.189 87.727 160.093 81.2261 156.556C75.8724 153.593 70.8055 149.099 65.4518 144.128L60.0982 144.797C56.7521 134.09 57.6125 125.39 62.2014 118.794C64.687 125.677 68.6067 131.891 74.2472 137.053C71.5704 138.009 69.4671 139.826 68.1287 142.025L77.4976 146.231C81.8953 146.9 95.5663 155.313 96.1399 119.941L96.6179 93.8416L96.9047 85.6198L98.53 34.3774H101.111V34.473Z" fill="white"/>
<path fill-rule="evenodd" clip-rule="evenodd" d="M101.78 41.7386V156.078C106.082 155.982 109.811 155.504 113.157 154.74C116.79 153.879 119.945 152.732 122.717 151.202C125.967 149.482 129.122 147.187 131.703 144.51C133.998 142.12 136.006 139.443 137.248 136.384C138.204 134.09 138.874 131.508 139.16 128.545C139.447 126.059 139.543 123.478 139.352 120.705C139.352 120.514 139.256 120.419 139.352 120.227L139.925 118.793L140.69 120.227C140.786 120.323 140.69 120.514 140.69 120.61C140.881 123.478 140.786 126.155 140.499 128.736C140.116 131.795 139.447 134.568 138.491 136.958C137.153 140.113 135.05 142.981 132.66 145.562C129.887 148.334 126.637 150.724 123.291 152.541C120.423 154.07 117.172 155.313 113.444 156.174C110.002 156.938 106.178 157.416 101.78 157.512V165.351H100.346V157.512C95.9485 157.416 92.1245 156.938 88.6828 156.174C84.9544 155.313 81.7039 154.07 78.8359 152.541C75.4898 150.724 72.2394 148.43 69.4669 145.562C66.9813 143.076 64.9736 140.208 63.6352 136.958C62.5836 134.568 61.9144 131.795 61.6276 128.736C61.3408 126.155 61.2452 123.574 61.4364 120.61C61.4364 120.514 61.4364 120.323 61.4364 120.227L62.2012 118.793L62.7748 120.227C62.8704 120.419 62.7748 120.514 62.7748 120.705C62.5836 123.478 62.6792 126.155 62.966 128.545C63.2528 131.413 63.922 134.09 64.878 136.384C66.1209 139.443 68.1285 142.12 70.4229 144.51C73.0998 147.187 76.2546 149.482 79.4095 151.202C82.1819 152.732 85.3368 153.879 88.9696 154.74C92.3157 155.504 96.0441 155.982 100.346 156.078V41.7386H101.78Z" fill="#9D9D9D"/>
<path fill-rule="evenodd" clip-rule="evenodd" d="M101.016 29.4064H114.973C115.356 29.4064 115.738 29.7888 115.738 30.1712V34.76C115.738 35.1424 115.356 35.5249 114.973 35.5249H101.016H87.0578C86.6754 35.5249 86.293 35.1424 86.293 34.76V30.1712C86.293 29.7888 86.6754 29.4064 87.0578 29.4064H101.016ZM100.729 4.93237C107.517 4.93237 112.966 10.3817 112.966 17.1694C112.966 23.9571 107.517 29.4064 100.729 29.4064C93.9411 29.4064 88.4918 23.9571 88.4918 17.1694C88.4918 10.3817 94.0367 4.93237 100.729 4.93237ZM100.729 9.71245C104.84 9.71245 108.186 13.0585 108.186 17.1694C108.186 21.2802 104.84 24.6263 100.729 24.6263C96.6179 24.6263 93.2719 21.2802 93.2719 17.1694C93.2719 13.0585 96.6179 9.71245 100.729 9.71245Z" fill="white"/>
<path fill-rule="evenodd" clip-rule="evenodd" d="M113.635 71.8531L113.444 71.9487L112.87 71.6619C112.105 71.2795 111.245 71.0883 110.48 70.7059L108.186 69.5586L110.384 68.2202C113.922 66.117 117.363 62.7709 120.231 59.8073C123.004 57.1305 125.776 54.2624 128.74 51.7768C132.182 48.9087 135.336 47.5703 139.83 47.1879C140.308 47.1879 140.69 47.0923 141.168 47.0923C145.47 46.9011 149.772 48.2395 153.787 49.5779C163.634 52.8284 173.099 57.7041 183.137 60.2853C187.344 60.9545 192.888 61.4325 196.999 59.9029C198.242 59.5205 199.772 59.3293 200.632 60.4765C201.588 61.8149 200.823 63.5358 199.963 64.5874C199.389 65.2566 198.72 65.9258 198.051 66.4994L197.669 67.4554C196.617 70.3235 194.609 72.2355 191.932 72.8091C190.594 76.442 188.491 77.6848 184.954 77.5892C183.615 81.222 181.129 81.5088 177.975 81.3176L177.879 81.5088C176.541 83.9945 173.481 84.3769 170.231 83.8989C169.562 85.0461 168.606 85.9065 167.363 86.2889C164.973 87.1493 162.2 86.3845 159.619 85.4285C159.428 85.7153 159.332 86.0021 158.95 86.1933C155.986 88.1053 151.971 87.2449 148.434 85.7153C148.243 86.0021 148.147 86.1933 147.765 86.3845C139.543 90.9734 132.086 81.5088 125.394 78.5452C124.82 78.2584 124.151 78.0672 123.96 77.4936C122.908 77.3024 121.952 76.7288 120.518 75.8683L113.635 71.8531Z" fill="#9D9D9D"/>
<path fill-rule="evenodd" clip-rule="evenodd" d="M113.348 70.419C112.583 70.0366 111.723 69.8454 110.958 69.463C116.981 65.8302 123.864 57.6084 129.601 52.924C132.755 50.2471 135.719 49.0043 139.83 48.6219C140.212 48.6219 140.69 48.5263 141.073 48.5263C145.184 48.3351 149.39 49.6735 153.214 50.9163C163.061 54.0712 172.717 59.138 182.755 61.6237C189.447 62.6753 194.132 62.3885 197.382 61.1457C201.302 59.8073 199.581 64.5873 195.088 66.4994C192.124 67.7422 188.969 67.1686 185.91 66.595C179.505 65.4478 173.099 63.2489 166.503 60.4765C160.862 58.0864 155.604 54.9316 149.677 53.1152C144.036 51.3943 139.256 51.0119 135.241 52.8283C128.931 55.6964 123.291 65.3521 113.348 70.419Z" fill="white"/>
<path fill-rule="evenodd" clip-rule="evenodd" d="M133.042 55.3141C141.55 48.4308 154.552 55.8877 163.252 59.9029C164.208 60.381 164.399 60.2854 164.399 61.337C164.303 61.9106 163.634 62.293 162.774 62.4842C160.957 62.8666 159.619 62.1974 157.898 61.5282C149.963 58.5645 142.124 54.8361 133.424 55.6965C132.564 55.6965 132.277 55.8877 133.042 55.3141Z" fill="white"/>
<path fill-rule="evenodd" clip-rule="evenodd" d="M161.531 63.4402C163.921 63.1534 165.355 62.3886 165.451 60.9546C172.334 64.1094 181.608 67.2643 190.212 68.1247C192.697 68.3159 194.227 67.8379 196.235 67.1687C195.087 70.5147 192.411 72.0444 189.064 71.8532C180.078 71.184 171.952 68.9851 161.531 63.4402Z" fill="white"/>
<path fill-rule="evenodd" clip-rule="evenodd" d="M128.836 58.8512C129.887 57.9908 130.556 56.9392 131.895 56.748C140.308 55.2184 150.728 59.7116 158.09 62.5797C160.097 63.3445 158.854 64.8741 157.325 65.1609C155.508 65.5433 154.17 65.3521 152.449 64.6829C144.514 61.7193 138.204 57.226 129.122 59.2336C128.357 59.4248 127.975 59.5205 128.836 58.8512Z" fill="white"/>
<path fill-rule="evenodd" clip-rule="evenodd" d="M155.699 66.1171C158.185 66.0215 159.906 65.2567 160.002 63.8226C166.407 66.6907 178.548 73.1916 190.69 72.4268C189.542 75.7728 187.726 76.5376 184.38 76.3464C180.747 76.0596 177.21 75.1036 173.481 73.8608C167.936 72.14 161.914 69.4631 155.699 66.1171Z" fill="white"/>
<path fill-rule="evenodd" clip-rule="evenodd" d="M125.394 62.1019C126.446 61.2415 127.211 60.3811 128.453 60.0943C136.962 57.9911 144.419 62.2931 151.78 65.3524C153.788 66.2128 152.736 67.4556 151.207 67.7424C149.39 68.1248 148.052 67.9336 146.331 67.2644C138.396 64.3008 134.859 60.4767 125.777 62.4844C125.012 62.58 124.629 62.7711 125.394 62.1019Z" fill="white"/>
<path fill-rule="evenodd" clip-rule="evenodd" d="M149.485 68.6984C151.971 68.6028 153.692 67.838 153.787 66.4039C158.185 68.2204 171.665 75.7729 183.615 77.1113C182.468 80.4574 180.078 80.1706 176.732 79.9794C170.326 79.5969 155.126 71.7576 149.485 68.6984Z" fill="white"/>
<path fill-rule="evenodd" clip-rule="evenodd" d="M122.526 64.9698C123.578 64.1094 123.482 63.8226 124.725 63.4402C133.807 60.8589 138.778 65.0654 146.14 68.1246C148.147 68.9851 147.574 69.8455 146.044 70.1323C144.228 70.5147 143.08 69.7499 141.36 69.1763C133.52 66.6906 132.373 64.5874 122.909 65.2566C122.048 65.3522 121.761 65.5434 122.526 64.9698Z" fill="white"/>
<path fill-rule="evenodd" clip-rule="evenodd" d="M144.323 71.1841C146.714 71.0885 148.148 70.4193 148.243 68.9852C151.589 70.4193 160.385 75.5817 169.467 78.9278C171.761 79.7882 174.247 80.7442 176.541 80.9354C172.717 88.1055 149.199 72.8093 144.323 71.1841Z" fill="white"/>
<path fill-rule="evenodd" clip-rule="evenodd" d="M120.04 66.8817C121.092 66.0213 120.901 66.0213 122.143 65.9257C133.233 65.4477 134.285 67.8378 140.595 69.941C142.698 70.6102 141.646 71.7574 140.117 71.853C134.38 72.331 127.88 66.3081 120.805 67.2642C120.04 67.3598 119.18 67.551 120.04 66.8817Z" fill="white"/>
<path fill-rule="evenodd" clip-rule="evenodd" d="M138.969 73.0007C141.36 72.9051 142.507 72.5226 142.507 71.0886C150.633 74.3391 160.767 81.6048 169.084 83.0388C168.606 83.9948 167.841 84.664 166.885 85.0464C163.921 86.1936 159.715 83.9948 157.134 82.752C149.868 79.4059 141.646 73.8611 138.969 73.0007Z" fill="white"/>
<path fill-rule="evenodd" clip-rule="evenodd" d="M133.425 74.4343C135.241 74.2431 136.293 73.7651 136.866 72.7135C144.323 76.3464 150.824 81.3176 158.472 84.5681C158.377 84.7593 158.281 84.9505 158.185 85.0461C151.685 89.1569 137.918 77.5892 133.138 74.8167C132.182 74.3387 132.564 74.5299 133.425 74.4343Z" fill="white"/>
<path fill-rule="evenodd" clip-rule="evenodd" d="M125.968 76.8246C127.784 76.6334 129.505 75.773 130.27 74.9126C130.365 74.7214 130.461 74.6258 130.557 74.4346C130.939 74.6258 131.321 74.817 131.608 75.1038C137.535 78.641 140.021 81.7959 147.382 84.7595C147.287 84.9507 147.191 85.1419 147.096 85.2375C139.734 89.3484 132.182 80.0751 125.968 77.3026C125.012 76.9202 124.916 76.9202 125.968 76.8246Z" fill="white"/>
<path fill-rule="evenodd" clip-rule="evenodd" d="M117.937 68.6024C118.989 67.742 118.798 68.0288 120.04 67.9332C122.048 67.8376 124.056 67.742 125.872 68.3156C128.74 69.176 131.417 70.8969 134.572 71.6617C135.337 71.8529 135.719 72.0441 135.719 72.2353C135.91 73.0001 133.425 74.1473 131.513 73.7649C127.402 72.9045 125.203 70.2277 118.702 69.0804C117.937 68.8892 117.172 69.2716 117.937 68.6024Z" fill="white"/>
<path fill-rule="evenodd" clip-rule="evenodd" d="M121.188 74.7212L114.687 70.8972L116.886 69.4631C117.842 69.4631 119.945 69.9411 122.239 70.8972C124.438 71.8532 127.115 72.7136 128.358 73.8608C129.505 74.9124 128.358 75.3904 126.35 75.964C123.865 76.5376 123.387 75.964 121.188 74.7212Z" fill="white"/>
<path fill-rule="evenodd" clip-rule="evenodd" d="M87.44 71.8531L87.6312 71.9487L88.2048 71.6619C88.9696 71.2795 89.83 71.0883 90.5949 70.7059L92.8893 69.5586L90.6905 68.2202C87.1532 66.117 83.7116 62.7709 80.8435 59.8073C78.0711 57.1305 75.2986 54.2624 72.335 51.7768C68.8933 48.9087 65.7385 47.5703 61.2452 47.1879C60.7672 47.1879 60.3848 47.0923 59.9068 47.0923C55.6047 46.9011 51.3027 48.2395 47.2874 49.5779C37.4404 52.8284 28.0715 57.7041 17.9377 60.2853C13.7313 60.9545 8.18639 61.4325 4.07552 59.9029C2.8327 59.5205 1.30309 59.3293 0.442672 60.4765C-0.513343 61.8149 0.251466 63.5358 1.11188 64.5874C1.68549 65.2566 2.3547 65.9258 3.02391 66.4994L3.40632 67.4554C4.45793 70.3235 6.46556 72.2355 9.1424 72.8091C10.4808 76.442 12.5841 77.6848 16.1213 77.5892C17.4597 81.222 19.9454 81.5088 23.1002 81.3176L23.1958 81.5088C24.5342 83.9945 27.5935 84.3769 30.8439 83.8989C31.5131 85.0461 32.4692 85.9065 33.712 86.2889C36.102 87.1493 38.8745 86.3845 41.4557 85.4285C41.6469 85.7153 41.7425 86.0021 42.1249 86.1933C45.0886 88.1053 49.1038 87.2449 52.6411 85.7153C52.8323 86.0021 52.9279 86.1933 53.3103 86.3845C61.532 90.9734 68.9889 81.5088 75.681 78.5452C76.2546 78.2584 76.9239 78.0672 77.1151 77.4936C78.1667 77.3024 79.1227 76.7288 80.5567 75.8683L87.44 71.8531Z" fill="#9D9D9D"/>
<path fill-rule="evenodd" clip-rule="evenodd" d="M87.7266 70.419C88.4915 70.0366 89.3519 69.8454 90.1167 69.463C84.0938 65.8302 77.2105 57.6084 71.4744 52.924C68.3195 50.2471 65.3559 49.0043 61.245 48.6219C60.8626 48.6219 60.3846 48.5263 60.0022 48.5263C55.8913 48.3351 51.6849 49.6735 47.8608 50.9163C38.0139 54.0712 28.3581 59.138 18.32 61.6237C11.6279 62.6753 6.9434 62.3885 3.69295 61.1457C-0.22671 59.8073 1.49411 64.5873 5.98738 66.4994C8.95103 67.7422 12.1059 67.1686 15.1651 66.595C21.5704 65.4478 27.9757 63.2489 34.5722 60.4765C40.2127 58.0864 45.4708 54.9316 51.3981 53.1152C57.0386 51.3943 61.8186 51.0119 65.8339 52.8283C72.1436 55.6964 77.7841 65.3521 87.7266 70.419Z" fill="white"/>
<path fill-rule="evenodd" clip-rule="evenodd" d="M68.0331 55.3141C59.5245 48.4308 46.5227 55.8877 37.823 59.9029C36.867 60.381 36.6758 60.2854 36.6758 61.337C36.7714 61.9106 37.4406 62.293 38.301 62.4842C40.1174 62.8666 41.4559 62.1974 43.1767 61.5282C51.1116 58.5645 58.9509 54.8361 67.6507 55.6965C68.4155 55.6965 68.7979 55.8877 68.0331 55.3141Z" fill="white"/>
<path fill-rule="evenodd" clip-rule="evenodd" d="M39.4485 63.4402C37.0584 63.1534 35.6244 62.3886 35.5288 60.9546C28.6455 64.1094 19.3721 67.2643 10.768 68.1247C8.28237 68.3159 6.75275 67.8379 4.74512 67.1687C5.89234 70.5147 8.56918 72.0444 11.9152 71.8532C20.9974 71.184 29.1235 68.9851 39.4485 63.4402Z" fill="white"/>
<path fill-rule="evenodd" clip-rule="evenodd" d="M72.2396 58.8512C71.188 57.9908 70.5188 56.9392 69.1804 56.748C60.7674 55.2184 50.3469 59.7116 42.9855 62.5797C40.9779 63.3445 42.2207 64.8741 43.7504 65.1609C45.5668 65.5433 46.9052 65.3521 48.626 64.6829C56.561 61.7193 62.8707 57.226 71.9528 59.2336C72.622 59.4248 73.0044 59.5205 72.2396 58.8512Z" fill="white"/>
<path fill-rule="evenodd" clip-rule="evenodd" d="M45.3754 66.1171C42.8898 66.0215 41.1689 65.2567 41.0733 63.8226C34.668 66.6907 22.5266 73.1916 10.3853 72.4268C11.5325 75.7728 13.3489 76.5376 16.695 76.3464C20.3278 76.0596 23.8651 75.1036 27.5935 73.8608C33.1384 72.14 39.1613 69.4631 45.3754 66.1171Z" fill="white"/>
<path fill-rule="evenodd" clip-rule="evenodd" d="M75.6812 62.1019C74.6295 61.2415 73.8647 60.3811 72.6219 60.0943C64.1134 57.9911 56.6565 62.2931 49.2951 65.3524C47.2875 66.2128 48.3391 67.4556 49.8688 67.7424C51.6852 68.1248 53.0236 67.9336 54.7444 67.2644C62.6794 64.3008 66.2166 60.4767 75.2987 62.4844C76.0636 62.58 76.446 62.7711 75.6812 62.1019Z" fill="white"/>
<path fill-rule="evenodd" clip-rule="evenodd" d="M51.4938 68.6984C49.0081 68.6028 47.2873 67.838 47.1917 66.4039C42.794 68.2204 29.3142 75.7729 17.364 77.1113C18.5112 80.4574 20.9013 80.1706 24.2473 79.9794C30.7482 79.5969 45.9489 71.7576 51.4938 68.6984Z" fill="white"/>
<path fill-rule="evenodd" clip-rule="evenodd" d="M78.549 64.9698C77.4973 64.1094 77.5929 63.8226 76.3501 63.4402C67.268 60.8589 62.2967 65.0654 54.9354 68.1246C52.9278 68.9851 53.5014 69.8455 55.031 70.1323C56.8474 70.5147 57.9946 69.7499 59.7155 69.1763C67.5548 66.6906 68.702 64.5874 78.1665 65.2566C78.9314 65.3522 79.3138 65.5434 78.549 64.9698Z" fill="white"/>
<path fill-rule="evenodd" clip-rule="evenodd" d="M56.6564 71.1841C54.2664 71.0885 52.8324 70.4193 52.7368 68.9852C49.3907 70.4193 40.5954 75.5817 31.5132 78.9278C29.2188 79.7882 26.7332 80.7442 24.4387 80.9354C28.3584 88.1055 51.8763 72.8093 56.6564 71.1841Z" fill="white"/>
<path fill-rule="evenodd" clip-rule="evenodd" d="M81.0345 66.8817C79.9829 66.0213 80.1741 66.0213 78.9313 65.9257C67.8415 65.4477 66.7899 67.8378 60.4802 69.941C58.377 70.6102 59.4286 71.7574 60.9582 71.853C66.6943 72.331 73.1952 66.3081 80.2697 67.2642C80.9389 67.3598 81.7993 67.551 81.0345 66.8817Z" fill="white"/>
<path fill-rule="evenodd" clip-rule="evenodd" d="M62.1059 73.0007C59.7159 72.9051 58.5687 72.5226 58.5687 71.0886C50.4425 74.3391 40.3088 81.6048 31.9915 83.0388C32.4695 83.9948 33.2343 84.664 34.1903 85.0464C37.1539 86.1936 41.3604 83.9948 43.9416 82.752C51.1118 79.4059 59.4291 73.8611 62.1059 73.0007Z" fill="white"/>
<path fill-rule="evenodd" clip-rule="evenodd" d="M67.6506 74.4343C65.8342 74.2431 64.7826 73.7651 64.209 72.7135C56.7521 76.3464 50.2511 81.3176 42.603 84.5681C42.6986 84.7593 42.7942 84.9505 42.8898 85.0461C49.3907 89.1569 63.1573 77.5892 67.9374 74.8167C68.8934 74.3387 68.511 74.5299 67.6506 74.4343Z" fill="white"/>
<path fill-rule="evenodd" clip-rule="evenodd" d="M75.1074 76.8246C73.2909 76.6334 71.5701 75.773 70.8053 74.9126C70.7097 74.7214 70.6141 74.6258 70.5185 74.4346C70.1361 74.6258 69.7537 74.817 69.4669 75.1038C63.5396 78.641 61.0539 81.7959 53.6926 84.7595C53.7882 84.9507 53.8838 85.1419 53.9794 85.2375C61.3407 89.3484 68.8933 80.0751 75.1074 77.3026C75.9678 76.9202 76.159 76.9202 75.1074 76.8246Z" fill="white"/>
<path fill-rule="evenodd" clip-rule="evenodd" d="M83.1377 68.6024C82.0861 67.742 82.2773 68.0288 81.0345 67.9332C79.0269 67.8376 77.0192 67.742 75.2028 68.3156C72.3348 69.176 69.6579 70.8969 66.5031 71.6617C65.7383 71.8529 65.3559 72.0441 65.3559 72.2353C65.1647 73.0001 67.6503 74.1473 69.5623 73.7649C73.6732 72.9045 75.872 70.2277 82.3729 69.0804C83.1377 68.8892 83.9025 69.2716 83.1377 68.6024Z" fill="white"/>
<path fill-rule="evenodd" clip-rule="evenodd" d="M79.8873 74.7212L86.3882 70.8972L84.1894 69.4631C83.2334 69.4631 81.1301 69.9411 78.8357 70.8972C76.6369 71.8532 73.96 72.7136 72.7172 73.8608C71.57 74.9124 72.7172 75.3904 74.7249 75.964C77.2105 76.5376 77.6885 75.964 79.8873 74.7212Z" fill="white"/>
<path fill-rule="evenodd" clip-rule="evenodd" d="M136.579 114.396L36.3888 11.7198C34.2855 9.4254 33.0427 7.03536 32.8515 3.97611C32.7559 3.2113 32.7559 2.6377 32.6603 1.77728L32.5647 0.343262L34.3811 0.438862C35.2415 0.438862 36.102 0.43886 36.9624 0.534462C39.7348 0.821266 41.9336 2.06408 44.0369 4.07171L146.713 104.262C139.83 111.815 141.455 107.226 136.579 114.396Z" fill="#9D9D9D"/>
<path fill-rule="evenodd" clip-rule="evenodd" d="M158.95 132.273C160.575 134.185 162.487 135.906 164.973 136.575C166.216 136.958 166.981 136.958 167.937 135.906C168.128 135.715 168.319 135.524 168.606 135.237C169.466 134.376 169.753 133.898 169.658 132.56C169.466 129.31 167.65 127.206 165.069 125.677C165.069 125.199 164.973 124.721 164.591 124.338L163.73 123.478C163.252 123 162.679 122.904 162.105 123L147.765 106.652L145.184 103.21L143.272 107.512L136.197 112.006L138.778 114.109L140.403 115.734L155.891 129.405C155.795 129.979 155.891 130.552 156.369 130.935L157.229 131.795C157.612 132.464 158.377 132.56 158.95 132.273Z" fill="#9D9D9D"/>
<path fill-rule="evenodd" clip-rule="evenodd" d="M143.558 109.042L142.889 116.212L141.359 114.778L139.734 113.153L138.587 112.293L143.558 109.042ZM160.958 126.537L161.149 124.052L162.2 125.295L160.958 126.537ZM160.288 123.191L159.906 127.589L157.898 129.597L157.612 129.31L158.376 120.992L160.288 123.191ZM157.612 120.036L156.847 128.545L154.935 126.824L155.795 117.838L157.612 120.036ZM154.935 116.977L154.074 126.155L152.162 124.434L153.118 114.874L154.935 116.977ZM152.162 113.822L151.206 123.574L149.294 121.853L150.25 111.624L152.162 113.822ZM149.485 110.763L148.529 121.184L146.617 119.463L147.669 108.564L149.485 110.763ZM146.713 107.608L145.661 118.602L143.749 116.882L144.61 107.991L145.566 105.983L146.713 107.608Z" fill="white"/>
<path fill-rule="evenodd" clip-rule="evenodd" d="M159.237 130.361L162.009 127.397L162.105 127.493C162.87 128.067 163.826 128.831 164.591 129.787C165.451 130.744 166.12 131.891 166.311 133.325C166.311 133.516 166.598 133.707 166.789 133.707C166.981 133.707 167.172 133.42 167.172 133.229C166.981 131.7 166.216 130.361 165.26 129.309C164.399 128.258 163.348 127.397 162.583 126.824L163.156 126.25C166.12 127.684 168.223 129.596 168.415 132.751C168.415 133.612 168.319 133.707 167.745 134.376C167.554 134.568 167.363 134.759 167.076 135.046C166.503 135.619 166.311 135.524 165.451 135.332C163.252 134.663 161.149 133.134 159.237 130.361Z" fill="white"/>
<path fill-rule="evenodd" clip-rule="evenodd" d="M163.539 123.382C162.87 122.713 161.722 122.809 161.053 123.574L156.273 128.927C155.604 129.597 155.699 130.744 156.369 131.413L157.229 132.178C157.898 132.847 159.046 132.751 159.715 131.987L164.495 126.633C165.164 125.964 165.068 124.816 164.399 124.147L163.539 123.382Z" fill="#9D9D9D"/>
<path fill-rule="evenodd" clip-rule="evenodd" d="M162.679 124.434L163.539 125.199C163.635 125.294 163.635 125.485 163.539 125.677L158.759 131.03C158.663 131.222 158.377 131.222 158.281 131.126L157.421 130.361C157.325 130.266 157.325 130.074 157.421 129.883L162.201 124.529C162.296 124.338 162.487 124.338 162.679 124.434Z" fill="white"/>
<path fill-rule="evenodd" clip-rule="evenodd" d="M141.455 111.145L106.56 75.4859L34.1901 3.01999C34.0945 6.17484 35.1461 8.46928 37.3449 10.8593L137.057 113.057L141.455 111.145ZM143.367 109.233L107.708 74.3387L35.3373 1.96838C38.4921 1.87278 40.7866 2.9244 43.1766 5.12323L145.375 104.836L143.367 109.233Z" fill="#EEF2F5"/>
<path fill-rule="evenodd" clip-rule="evenodd" d="M152.258 96.4229C153.979 96.5185 155.891 95.4669 156.943 94.4153C158.377 92.9812 160.002 89.7308 158.186 87.9144C156.465 86.1935 153.023 87.532 151.493 89.0616C150.346 90.2088 149.39 92.2164 149.581 93.9372L135.815 103.689L126.063 117.455C124.343 117.264 122.335 118.22 121.188 119.367C119.754 120.801 118.32 124.243 120.041 126.059C121.761 127.78 125.107 126.251 126.541 124.817C127.593 123.765 128.645 121.853 128.549 120.132L143.176 111.146L152.258 96.4229Z" fill="#9D9D9D"/>
<path fill-rule="evenodd" clip-rule="evenodd" d="M142.315 109.998L127.115 119.367C127.688 120.228 127.21 122.235 125.681 123.765C124.055 125.39 121.857 125.772 121.187 125.008C120.518 124.338 120.709 121.948 122.335 120.323C123.769 118.889 125.872 118.507 126.828 119.08L136.962 104.74L151.397 94.6064C150.919 93.746 151.206 91.6427 152.64 90.1131C154.265 88.4879 156.655 88.2967 157.325 88.9659C157.994 89.6351 157.611 91.8339 156.082 93.4592C154.552 94.9888 152.545 95.3712 151.684 94.8932L142.315 109.998Z" fill="white"/>
<path fill-rule="evenodd" clip-rule="evenodd" d="M129.505 116.117C129.314 116.308 129.314 116.595 129.409 116.786C129.6 116.977 129.887 116.881 130.078 116.69L139.734 107.799L140.881 109.52C141.073 109.711 141.742 109.616 141.933 109.52C142.124 109.329 142.124 108.755 141.933 108.564L140.212 107.417L148.912 97.7612C149.103 97.57 149.294 97.3788 149.103 97.1876C148.912 96.9964 148.721 97.2832 148.53 97.4744L139.256 106.365L138.109 104.836C137.918 104.644 137.344 104.836 137.249 105.027C137.057 105.218 136.962 105.6 137.153 105.792L138.778 106.843L129.505 116.117Z" fill="#9D9D9D"/>
<path fill-rule="evenodd" clip-rule="evenodd" d="M42.4121 132.082C40.7869 133.994 38.7792 135.619 36.2936 136.288C34.9552 136.575 34.286 136.671 33.33 135.619C33.1387 135.428 32.9475 135.237 32.6607 134.95C31.8003 133.994 31.5135 133.612 31.6091 132.273C31.8003 129.023 33.7124 126.919 36.2936 125.485C36.2936 125.007 36.3892 124.529 36.7716 124.147L37.632 123.287C38.11 122.809 38.7792 122.713 39.3528 122.904L53.9799 106.748L56.6567 103.401L58.5687 107.704L65.5476 112.388L62.8708 114.396L61.2456 116.021L45.5669 129.405C45.6625 129.979 45.4713 130.552 45.0889 130.935L44.2285 131.795C43.8461 132.273 43.0813 132.369 42.4121 132.082Z" fill="#9D9D9D"/>
<path fill-rule="evenodd" clip-rule="evenodd" d="M58.2814 109.138L58.855 116.308L60.4802 114.969L62.1054 113.344L63.2527 112.484L58.2814 109.138ZM40.5951 126.346L40.4039 123.86L39.3523 125.007L40.5951 126.346ZM41.2643 122.904L41.6467 127.302L43.6544 129.309L43.9412 129.023L43.272 120.705L41.2643 122.904ZM44.0368 119.845L44.706 128.353L46.7136 126.633L46.0444 117.646L44.0368 119.845ZM46.8092 116.881L47.4784 126.059L49.4861 124.338L48.7212 114.778L46.8092 116.881ZM49.5817 113.822L50.3465 123.573L52.3541 121.852L51.5893 111.623L49.5817 113.822ZM52.3541 110.763L53.1189 121.183L55.1265 119.462L54.2661 108.564L52.3541 110.763ZM55.1265 107.703L55.987 118.793L57.9946 117.072L57.3254 108.181L56.465 106.078L55.1265 107.703Z" fill="white"/>
<path fill-rule="evenodd" clip-rule="evenodd" d="M42.2203 130.17L39.4478 127.207L39.3522 127.302C38.5874 127.876 37.6314 128.641 36.771 129.597C35.9106 130.553 35.2414 131.7 35.0502 133.134C35.0502 133.325 34.7634 133.516 34.5721 133.516C34.3809 133.516 34.1897 133.23 34.1897 133.038C34.3809 131.509 35.2414 130.17 36.1018 129.119C36.9622 128.067 38.0138 127.302 38.7786 126.729L38.3006 126.155C35.337 127.493 33.2337 129.405 32.9469 132.56C32.8513 133.421 32.9469 133.516 33.6161 134.186C33.8073 134.377 33.9985 134.568 34.2853 134.855C34.859 135.428 35.0502 135.428 35.9106 135.142C38.1094 134.377 40.2126 132.847 42.2203 130.17Z" fill="white"/>
<path fill-rule="evenodd" clip-rule="evenodd" d="M64.4956 114.396L164.686 11.7198C166.789 9.4254 168.032 7.03536 168.223 3.97611C168.319 3.2113 168.319 2.6377 168.414 1.77728L168.51 0.343262L166.694 0.438862C165.833 0.438862 164.973 0.43886 164.112 0.534462C161.34 0.821266 159.141 2.06408 157.038 4.07171L54.3618 104.262C61.2451 111.815 59.5243 107.226 64.4956 114.396Z" fill="#9D9D9D"/>
<path fill-rule="evenodd" clip-rule="evenodd" d="M38.014 123.095C38.7788 122.426 39.8304 122.617 40.4996 123.287L45.1841 128.736C45.8533 129.501 45.7577 130.552 44.9929 131.221L44.1325 131.986C43.3676 132.656 42.316 132.464 41.6468 131.795L36.9623 126.346C36.3887 125.581 36.3887 124.529 37.1535 123.86L38.014 123.095Z" fill="#9D9D9D"/>
<path fill-rule="evenodd" clip-rule="evenodd" d="M38.8745 124.147L38.0141 124.912C37.9185 125.008 37.9185 125.199 38.0141 125.39L42.6986 130.839C42.7942 131.031 43.081 131.031 43.1766 130.935L44.037 130.17C44.1326 130.075 44.1326 129.883 44.037 129.692L39.3525 124.243C39.2569 124.052 39.0657 124.052 38.8745 124.147Z" fill="white"/>
<path fill-rule="evenodd" clip-rule="evenodd" d="M59.5246 111.145L94.4191 75.4859L166.885 3.01999C166.981 6.17484 165.929 8.46928 163.73 10.8593L63.9223 112.962L59.5246 111.145ZM57.7082 109.233L93.3675 74.3387L165.738 1.96838C162.583 1.87278 160.289 2.9244 157.899 5.12323L55.7961 104.836L57.7082 109.233Z" fill="#EEF2F5"/>
<path fill-rule="evenodd" clip-rule="evenodd" d="M72.3354 120.323C72.2398 122.044 73.2914 123.956 74.343 125.007C75.777 126.441 79.0275 128.067 80.8439 126.346C82.6603 124.625 81.3219 121.183 79.7923 119.654C78.645 118.506 76.6374 117.55 74.9166 117.646L65.3564 103.688L51.6854 93.7456C51.8766 92.0248 51.0162 90.0172 49.869 88.87C48.435 87.3403 44.9933 85.9063 43.2725 87.6271C41.4561 89.348 42.9857 92.694 44.4197 94.128C45.4713 95.1797 47.3834 96.3269 49.1042 96.2313L57.8039 110.954L72.3354 120.323Z" fill="#9D9D9D"/>
<path fill-rule="evenodd" clip-rule="evenodd" d="M58.9505 110.094L49.8683 94.7019C49.0079 95.1799 47.0003 94.7975 45.5663 93.2679C44.0367 91.6426 43.6543 89.4438 44.3235 88.7746C45.0883 88.1054 47.3827 88.2966 49.0079 89.9218C50.442 91.4514 50.7288 93.5547 50.2508 94.4151L64.4954 104.836L74.4379 119.367C75.2983 118.889 77.4016 119.176 78.9312 120.705C80.4608 122.331 80.652 124.721 79.9828 125.39C79.218 126.059 77.0192 125.677 75.4895 124.052C74.0555 122.522 73.5775 120.514 74.1511 119.654L58.9505 110.094Z" fill="white"/>
<path fill-rule="evenodd" clip-rule="evenodd" d="M53.0232 97.1876C52.832 96.9964 52.5452 96.9008 52.354 97.092C52.1628 97.2832 52.2584 97.57 52.4496 97.7612L61.1493 107.513L59.4285 108.66C59.2373 108.851 59.3329 109.52 59.4285 109.711C59.6197 109.903 60.1933 109.903 60.3845 109.711L61.5317 107.991L71.0919 116.786C71.2831 116.977 71.4743 117.168 71.6655 116.977C71.8567 116.786 71.6655 116.595 71.3787 116.404L62.5833 107.035L64.113 105.983C64.3042 105.792 64.113 105.218 64.0174 105.123C63.8262 104.931 63.4438 104.836 63.2526 105.027L62.2009 106.652L53.0232 97.1876Z" fill="#9D9D9D"/>
</g>
</svg>
