<svg width="445" height="372" viewBox="0 0 445 372" fill="none" xmlns="http://www.w3.org/2000/svg">
<g opacity="0.1">
<path fill-rule="evenodd" clip-rule="evenodd" d="M303.396 321.873C292.822 331.601 281.402 341.963 268.924 348.731C264.272 351.268 259.619 353.172 254.755 355.075C243.335 359.516 235.299 363.111 225.782 371.148C224.302 372.416 222.822 372.205 221.13 370.936C211.613 362.9 203.577 359.305 192.157 354.864C187.293 352.96 182.64 351.057 177.988 348.519C165.511 341.752 154.091 331.389 143.517 321.661L130.616 323.142L129.77 320.604C123.426 300.302 122.157 278.519 134.846 260.332L138.23 255.468L140.344 261.178C145.631 276.193 154.302 289.516 166.145 300.302L169.952 303.685L165.088 305.377C161.069 306.858 157.686 309.184 155.148 312.356L172.066 319.969C179.257 321.238 186.024 325.256 193.426 321.027C207.807 312.99 209.075 278.308 209.287 264.561L210.344 206.827L210.979 188.64L214.574 80.7851H192.157C189.619 80.7851 187.293 78.6703 187.293 75.9211V65.9815C187.293 63.4438 189.408 61.1175 192.157 61.1175H204.423C197.021 55.619 192.369 46.9483 192.369 37.0087C192.369 20.3018 205.903 6.97852 222.399 6.97852C239.106 6.97852 252.429 20.5133 252.429 37.0087C252.429 46.9483 247.565 55.619 240.375 61.1175H254.121C256.659 61.1175 258.985 63.2323 258.985 65.9815V76.1326C258.985 78.6703 256.87 80.9966 254.121 80.9966H231.915L236.145 207.25L237.202 264.984C237.414 278.519 238.683 313.413 253.063 321.45C260.465 325.679 267.233 321.45 274.423 320.392L291.341 312.779C288.804 309.607 285.42 307.28 281.402 305.8L276.538 304.108L280.344 300.725C292.187 289.939 300.646 276.616 306.145 261.601L308.26 255.891L311.643 260.755C324.332 278.942 323.063 300.725 316.719 321.027L315.873 323.565L303.396 321.873ZM222.822 24.1084C230.012 24.1084 235.933 30.0299 235.933 37.2202C235.933 44.4105 230.012 50.332 222.822 50.332C215.631 50.332 209.71 44.4105 209.71 37.2202C209.71 30.0299 215.631 24.1084 222.822 24.1084Z" fill="#AFBECC"/>
<path fill-rule="evenodd" clip-rule="evenodd" d="M223.668 75.4988H229.167L232.762 188.852L233.396 207.04L234.454 264.774C235.723 343.233 265.964 324.623 275.692 322.931L296.418 313.626C293.245 308.55 288.804 304.743 282.883 302.629C295.149 291.209 304.031 277.674 309.529 262.236C319.68 276.828 321.584 296.073 314.182 319.759L302.339 318.278C290.496 329.275 279.288 339.215 267.445 345.771C253.064 353.595 241.221 353.807 223.88 368.399C223.457 368.611 223.668 368.611 223.245 368.188C205.904 353.595 194.061 353.384 179.68 345.559C167.837 339.003 156.629 329.064 144.786 318.067L132.943 319.547C125.541 295.861 127.445 276.617 137.596 262.024C143.094 277.251 151.765 290.997 164.242 302.417C158.321 304.532 153.668 308.55 150.708 313.414L171.433 322.719C181.161 324.2 211.402 342.81 212.671 264.562L213.729 206.828L214.363 188.641L217.958 75.2874H223.668V75.4988Z" fill="black"/>
<path fill-rule="evenodd" clip-rule="evenodd" d="M225.148 91.571V344.501C234.665 344.29 242.913 343.233 250.314 341.541C258.351 339.637 265.33 337.1 271.463 333.716C278.653 329.909 285.632 324.834 291.342 318.912C296.417 313.625 300.858 307.704 303.608 300.937C305.722 295.861 307.203 290.151 307.837 283.595C308.472 278.097 308.683 272.387 308.26 266.254C308.26 265.831 308.049 265.619 308.26 265.196L309.529 262.024L311.221 265.196C311.432 265.408 311.221 265.831 311.221 266.042C311.644 272.387 311.432 278.308 310.798 284.018C309.952 290.785 308.472 296.918 306.357 302.205C303.396 309.184 298.743 315.529 293.456 321.239C287.324 327.372 280.133 332.659 272.731 336.677C266.387 340.06 259.197 342.81 250.949 344.713C243.336 346.405 234.876 347.462 225.148 347.674V365.015H221.976V347.674C212.248 347.462 203.789 346.405 196.176 344.713C187.928 342.81 180.737 340.06 174.393 336.677C166.991 332.659 159.801 327.583 153.668 321.239C148.17 315.74 143.728 309.396 140.768 302.205C138.441 296.918 136.961 290.785 136.327 284.018C135.692 278.308 135.481 272.598 135.904 266.042C135.904 265.831 135.904 265.408 135.904 265.196L137.595 262.024L138.864 265.196C139.076 265.619 138.864 265.831 138.864 266.254C138.441 272.387 138.653 278.308 139.287 283.595C139.922 289.939 141.402 295.861 143.517 300.937C146.266 307.704 150.707 313.625 155.783 318.912C161.704 324.834 168.683 329.909 175.662 333.716C181.795 337.1 188.774 339.637 196.81 341.541C204.212 343.233 212.46 344.29 221.976 344.501V91.571H225.148Z" fill="#AFBECC"/>
<path fill-rule="evenodd" clip-rule="evenodd" d="M223.457 64.2902H254.333C255.179 64.2902 256.025 65.1361 256.025 65.982V76.1331C256.025 76.979 255.179 77.825 254.333 77.825H223.457H192.581C191.735 77.825 190.889 76.979 190.889 76.1331V65.982C190.889 65.1361 191.735 64.2902 192.581 64.2902H223.457ZM222.822 10.1512C237.837 10.1512 249.892 22.2056 249.892 37.2207C249.892 52.2358 237.837 64.2902 222.822 64.2902C207.807 64.2902 195.753 52.2358 195.753 37.2207C195.753 22.2056 208.019 10.1512 222.822 10.1512ZM222.822 20.7253C231.916 20.7253 239.318 28.1271 239.318 37.2207C239.318 46.3144 231.916 53.7162 222.822 53.7162C213.729 53.7162 206.327 46.3144 206.327 37.2207C206.327 28.1271 213.729 20.7253 222.822 20.7253Z" fill="black"/>
<path fill-rule="evenodd" clip-rule="evenodd" d="M251.372 158.187L250.949 158.398L249.68 157.764C247.988 156.918 246.085 156.495 244.393 155.649L239.318 153.111L244.182 150.151C252.006 145.498 259.62 138.096 265.964 131.54C272.097 125.619 278.23 119.275 284.786 113.776C292.399 107.432 299.378 104.471 309.318 103.625C310.375 103.625 311.221 103.414 312.278 103.414C321.795 102.991 331.312 105.951 340.194 108.912C361.976 116.102 382.913 126.888 405.118 132.598C414.423 134.078 426.689 135.136 435.783 131.752C438.532 130.906 441.916 130.483 443.819 133.021C445.934 135.982 444.242 139.788 442.339 142.114C441.07 143.595 439.589 145.075 438.109 146.344L437.263 148.459C434.937 154.803 430.496 159.033 424.574 160.302C421.614 168.338 416.961 171.087 409.136 170.876C406.176 178.912 400.677 179.546 393.698 179.124L393.487 179.546C390.526 185.045 383.759 185.891 376.568 184.833C375.088 187.371 372.973 189.275 370.224 190.121C364.937 192.024 358.804 190.332 353.094 188.217C352.671 188.852 352.46 189.486 351.614 189.909C345.058 194.139 336.176 192.235 328.351 188.852C327.928 189.486 327.716 189.909 326.87 190.332C308.683 200.483 292.188 179.547 277.384 172.991C276.115 172.356 274.635 171.933 274.212 170.664C271.886 170.241 269.771 168.972 266.599 167.069L251.372 158.187Z" fill="#AFBECC"/>
<path fill-rule="evenodd" clip-rule="evenodd" d="M250.738 155.015C249.046 154.169 247.143 153.746 245.451 152.9C258.774 144.863 274.001 126.676 286.69 116.314C293.668 110.392 300.224 107.643 309.318 106.797C310.164 106.797 311.221 106.585 312.067 106.585C321.161 106.163 330.466 109.123 338.925 111.873C360.708 118.851 382.067 130.06 404.273 135.558C419.076 137.885 429.439 137.25 436.629 134.501C445.3 131.54 441.493 142.114 431.554 146.344C424.998 149.093 418.019 147.824 411.251 146.555C397.082 144.018 382.913 139.153 368.321 133.021C355.844 127.734 344.212 120.755 331.1 116.737C318.623 112.93 308.049 112.084 299.167 116.102C285.209 122.447 272.732 143.806 250.738 155.015Z" fill="black"/>
<path fill-rule="evenodd" clip-rule="evenodd" d="M294.303 121.601C313.124 106.374 341.886 122.87 361.13 131.752C363.245 132.809 363.668 132.598 363.668 134.924C363.457 136.193 361.976 137.039 360.073 137.462C356.055 138.308 353.094 136.827 349.287 135.347C331.735 128.791 314.393 120.543 295.148 122.447C293.245 122.447 292.611 122.87 294.303 121.601Z" fill="black"/>
<path fill-rule="evenodd" clip-rule="evenodd" d="M357.324 139.577C362.611 138.942 365.783 137.25 365.995 134.078C381.221 141.057 401.735 148.036 420.768 149.939C426.267 150.362 429.65 149.305 434.092 147.824C431.554 155.226 425.632 158.61 418.231 158.187C398.351 156.707 380.376 151.842 357.324 139.577Z" fill="black"/>
<path fill-rule="evenodd" clip-rule="evenodd" d="M284.998 129.425C287.324 127.522 288.804 125.196 291.765 124.773C310.375 121.389 333.427 131.329 349.711 137.673C354.152 139.365 351.403 142.749 348.019 143.383C344.001 144.229 341.04 143.806 337.233 142.326C319.681 135.77 305.723 125.83 285.632 130.271C283.94 130.694 283.094 130.906 284.998 129.425Z" fill="black"/>
<path fill-rule="evenodd" clip-rule="evenodd" d="M344.424 145.498C349.922 145.286 353.729 143.594 353.94 140.422C368.109 146.767 394.967 161.147 421.825 159.455C419.288 166.857 415.269 168.549 407.868 168.126C399.831 167.492 392.007 165.377 383.759 162.628C371.493 158.821 358.17 152.899 344.424 145.498Z" fill="black"/>
<path fill-rule="evenodd" clip-rule="evenodd" d="M277.385 136.616C279.711 134.713 281.403 132.81 284.152 132.175C302.974 127.523 319.469 137.039 335.753 143.807C340.194 145.71 337.868 148.459 334.485 149.094C330.466 149.94 327.506 149.517 323.699 148.036C306.146 141.481 298.321 133.021 278.231 137.462C276.539 137.674 275.693 138.097 277.385 136.616Z" fill="black"/>
<path fill-rule="evenodd" clip-rule="evenodd" d="M330.677 151.208C336.176 150.997 339.983 149.305 340.194 146.133C349.922 150.151 379.741 166.858 406.176 169.819C403.638 177.22 398.351 176.586 390.949 176.163C376.78 175.317 343.155 157.976 330.677 151.208Z" fill="black"/>
<path fill-rule="evenodd" clip-rule="evenodd" d="M271.04 142.96C273.366 141.057 273.155 140.422 275.904 139.576C295.995 133.866 306.992 143.172 323.276 149.939C327.717 151.842 326.448 153.746 323.064 154.38C319.046 155.226 316.508 153.534 312.702 152.265C295.36 146.767 292.823 142.114 271.886 143.595C269.983 143.806 269.348 144.229 271.04 142.96Z" fill="black"/>
<path fill-rule="evenodd" clip-rule="evenodd" d="M319.258 156.707C324.545 156.495 327.717 155.015 327.929 151.843C335.331 155.015 354.787 166.435 374.877 173.836C379.953 175.74 385.451 177.855 390.527 178.278C382.068 194.139 330.044 160.302 319.258 156.707Z" fill="black"/>
<path fill-rule="evenodd" clip-rule="evenodd" d="M265.542 147.19C267.868 145.286 267.445 145.286 270.194 145.075C294.726 144.017 297.052 149.304 311.01 153.957C315.663 155.437 313.336 157.975 309.953 158.187C297.264 159.244 282.883 145.921 267.234 148.035C265.542 148.247 263.639 148.67 265.542 147.19Z" fill="black"/>
<path fill-rule="evenodd" clip-rule="evenodd" d="M307.415 160.725C312.702 160.513 315.239 159.668 315.239 156.495C333.215 163.686 355.632 179.758 374.031 182.93C372.973 185.045 371.282 186.526 369.167 187.371C362.611 189.909 353.306 185.045 347.596 182.296C331.523 174.894 313.336 162.628 307.415 160.725Z" fill="black"/>
<path fill-rule="evenodd" clip-rule="evenodd" d="M295.149 163.897C299.167 163.474 301.493 162.417 302.762 160.09C319.257 168.127 333.638 179.124 350.556 186.314C350.345 186.737 350.134 187.16 349.922 187.371C335.541 196.465 305.088 170.876 294.514 164.743C292.399 163.685 293.245 164.108 295.149 163.897Z" fill="black"/>
<path fill-rule="evenodd" clip-rule="evenodd" d="M278.653 169.184C282.671 168.761 286.478 166.858 288.17 164.954C288.381 164.531 288.593 164.32 288.804 163.897C289.65 164.32 290.496 164.743 291.13 165.377C304.242 173.202 309.741 180.181 326.025 186.737C325.813 187.16 325.602 187.583 325.39 187.794C309.106 196.888 292.399 176.374 278.653 170.241C276.538 169.395 276.327 169.395 278.653 169.184Z" fill="black"/>
<path fill-rule="evenodd" clip-rule="evenodd" d="M260.89 150.996C263.216 149.093 262.793 149.727 265.542 149.516C269.983 149.304 274.424 149.093 278.442 150.362C284.787 152.265 290.708 156.072 297.687 157.764C299.379 158.187 300.225 158.609 300.225 159.032C300.648 160.724 295.149 163.262 290.92 162.416C281.826 160.513 276.962 154.591 262.581 152.054C260.89 151.631 259.198 152.477 260.89 150.996Z" fill="black"/>
<path fill-rule="evenodd" clip-rule="evenodd" d="M268.079 164.531L253.698 156.072L258.563 152.9C260.677 152.9 265.33 153.957 270.405 156.072C275.269 158.187 281.191 160.09 283.94 162.628C286.478 164.954 283.94 166.012 279.499 167.281C274.001 168.549 272.943 167.281 268.079 164.531Z" fill="black"/>
<path fill-rule="evenodd" clip-rule="evenodd" d="M193.426 158.187L193.849 158.398L195.118 157.764C196.81 156.918 198.713 156.495 200.405 155.649L205.481 153.111L200.617 150.151C192.792 145.498 185.179 138.096 178.834 131.54C172.701 125.619 166.568 119.275 160.012 113.776C152.399 107.432 145.42 104.471 135.481 103.625C134.423 103.625 133.577 103.414 132.52 103.414C123.003 102.991 113.487 105.951 104.605 108.912C82.8221 116.102 62.097 126.888 39.6801 132.598C30.375 134.078 18.1091 135.136 9.01548 131.752C6.26623 130.906 2.88256 130.483 0.979235 133.021C-1.13557 135.982 0.556269 139.788 2.45959 142.114C3.72847 143.595 5.20883 145.075 6.6892 146.344L7.53512 148.459C9.8614 154.803 14.3025 159.033 20.2239 160.302C23.1847 168.338 27.8372 171.087 35.662 170.876C38.6227 178.912 44.1212 179.546 51.1001 179.124L51.3115 179.546C54.2723 185.045 61.0396 185.891 68.23 184.833C69.7103 187.371 71.8251 189.275 74.5744 190.121C79.8614 192.024 85.9943 190.332 91.7043 188.217C92.1272 188.852 92.3387 189.486 93.1846 189.909C99.7405 194.139 108.623 192.235 116.447 188.852C116.87 189.486 117.082 189.909 117.928 190.332C136.115 200.483 152.611 179.547 167.414 172.991C168.683 172.356 170.163 171.933 170.586 170.664C172.913 170.241 175.027 168.972 178.2 167.069L193.426 158.187Z" fill="#AFBECC"/>
<path fill-rule="evenodd" clip-rule="evenodd" d="M194.061 155.015C195.753 154.169 197.656 153.746 199.348 152.9C186.025 144.863 170.798 126.676 158.109 116.314C151.13 110.392 144.574 107.643 135.481 106.797C134.635 106.797 133.577 106.585 132.732 106.585C123.638 106.163 114.333 109.123 105.874 111.873C84.0911 118.851 62.7316 130.06 40.5261 135.558C25.7225 137.885 15.36 137.25 8.16966 134.501C-0.501035 131.54 3.3056 142.114 13.2452 146.344C19.8011 149.093 26.7799 147.824 33.5473 146.555C47.7165 144.018 61.8856 139.153 76.4778 133.021C88.9551 127.734 100.587 120.755 113.698 116.737C126.176 112.93 136.75 112.084 145.632 116.102C159.59 122.447 172.067 143.806 194.061 155.015Z" fill="black"/>
<path fill-rule="evenodd" clip-rule="evenodd" d="M150.496 121.601C131.674 106.374 102.913 122.87 83.6684 131.752C81.5536 132.809 81.1306 132.598 81.1306 134.924C81.3421 136.193 82.8225 137.039 84.7258 137.462C88.7439 138.308 91.7046 136.827 95.5113 135.347C113.064 128.791 130.406 120.543 149.65 122.447C151.342 122.447 152.188 122.87 150.496 121.601Z" fill="black"/>
<path fill-rule="evenodd" clip-rule="evenodd" d="M87.2637 139.577C81.9767 138.942 78.8045 137.25 78.593 134.078C63.3664 141.057 42.8528 148.036 23.8196 149.939C18.3211 150.362 14.9374 149.305 10.4963 147.824C13.0341 155.226 18.9555 158.61 26.3574 158.187C46.448 156.707 64.4238 151.842 87.2637 139.577Z" fill="black"/>
<path fill-rule="evenodd" clip-rule="evenodd" d="M159.801 129.425C157.475 127.522 155.995 125.196 153.034 124.773C134.424 121.389 111.372 131.329 95.0885 137.673C90.6474 139.365 93.3966 142.749 96.7803 143.383C100.798 144.229 103.759 143.806 107.566 142.326C125.119 135.77 139.076 125.83 159.167 130.271C160.647 130.694 161.493 130.906 159.801 129.425Z" fill="black"/>
<path fill-rule="evenodd" clip-rule="evenodd" d="M100.375 145.498C94.8769 145.286 91.0703 143.594 90.8588 140.422C76.6896 146.767 49.8316 161.147 22.9736 159.455C25.5114 166.857 29.5295 168.549 36.9313 168.126C44.9676 167.492 52.7924 165.377 61.0401 162.628C73.3059 158.821 86.6292 152.899 100.375 145.498Z" fill="black"/>
<path fill-rule="evenodd" clip-rule="evenodd" d="M167.415 136.616C165.088 134.713 163.397 132.81 160.647 132.175C141.826 127.523 125.33 137.039 109.046 143.807C104.605 145.71 106.931 148.459 110.315 149.094C114.333 149.94 117.294 149.517 121.1 148.036C138.653 141.481 146.478 133.021 166.569 137.462C168.261 137.674 169.107 138.097 167.415 136.616Z" fill="black"/>
<path fill-rule="evenodd" clip-rule="evenodd" d="M113.91 151.208C108.411 150.997 104.605 149.305 104.393 146.133C94.6651 150.151 64.8464 166.858 38.4114 169.819C40.9491 177.22 46.2362 176.586 53.638 176.163C68.0186 175.317 101.644 157.976 113.91 151.208Z" fill="black"/>
<path fill-rule="evenodd" clip-rule="evenodd" d="M173.759 142.96C171.432 141.057 171.644 140.422 168.895 139.576C148.804 133.866 137.807 143.172 121.523 149.939C117.082 151.842 118.351 153.746 121.735 154.38C125.753 155.226 128.291 153.534 132.097 152.265C149.439 146.767 151.976 142.114 172.913 143.595C174.605 143.806 175.451 144.229 173.759 142.96Z" fill="black"/>
<path fill-rule="evenodd" clip-rule="evenodd" d="M125.33 156.707C120.043 156.495 116.871 155.015 116.659 151.843C109.257 155.015 89.8012 166.435 69.7106 173.836C64.6351 175.74 59.1366 177.855 54.061 178.278C62.7317 194.139 114.756 160.302 125.33 156.707Z" fill="black"/>
<path fill-rule="evenodd" clip-rule="evenodd" d="M179.257 147.19C176.931 145.286 177.354 145.286 174.605 145.075C150.073 144.017 147.747 149.304 133.789 153.957C129.136 155.437 131.463 157.975 134.846 158.187C147.535 159.244 161.916 145.921 177.565 148.035C179.046 148.247 180.949 148.67 179.257 147.19Z" fill="black"/>
<path fill-rule="evenodd" clip-rule="evenodd" d="M137.384 160.725C132.097 160.513 129.559 159.668 129.559 156.495C111.584 163.686 89.1666 179.758 70.7678 182.93C71.8252 185.045 73.5171 186.526 75.6319 187.371C82.1877 189.909 91.4929 185.045 97.2029 182.296C113.064 174.894 131.463 162.628 137.384 160.725Z" fill="black"/>
<path fill-rule="evenodd" clip-rule="evenodd" d="M149.65 163.897C145.632 163.474 143.306 162.417 142.037 160.09C125.541 168.127 111.161 179.124 94.2422 186.314C94.4537 186.737 94.6652 187.16 94.8766 187.371C109.257 196.465 139.71 170.876 150.284 164.743C152.399 163.685 151.553 164.108 149.65 163.897Z" fill="black"/>
<path fill-rule="evenodd" clip-rule="evenodd" d="M166.145 169.184C162.127 168.761 158.32 166.858 156.629 164.954C156.417 164.531 156.206 164.32 155.994 163.897C155.148 164.32 154.302 164.743 153.668 165.377C140.556 173.202 135.058 180.181 118.774 186.737C118.985 187.16 119.197 187.583 119.408 187.794C135.692 196.888 152.399 176.374 166.145 170.241C168.049 169.395 168.472 169.395 166.145 169.184Z" fill="black"/>
<path fill-rule="evenodd" clip-rule="evenodd" d="M183.91 150.996C181.584 149.093 182.007 149.727 179.257 149.516C174.816 149.304 170.375 149.093 166.357 150.362C160.013 152.265 154.091 156.072 147.112 157.764C145.42 158.187 144.575 158.609 144.575 159.032C144.152 160.724 149.65 163.262 153.88 162.416C162.973 160.513 167.837 154.591 182.218 152.054C183.91 151.631 185.602 152.477 183.91 150.996Z" fill="black"/>
<path fill-rule="evenodd" clip-rule="evenodd" d="M176.719 164.531L191.1 156.072L186.236 152.9C184.121 152.9 179.468 153.957 174.393 156.072C169.529 158.187 163.607 160.09 160.858 162.628C158.32 164.954 160.858 166.012 165.299 167.281C170.798 168.549 171.855 167.281 176.719 164.531Z" fill="black"/>
<path fill-rule="evenodd" clip-rule="evenodd" d="M302.127 252.296L80.4958 25.1661C75.8433 20.0906 73.094 14.8036 72.6711 8.03624C72.4596 6.3444 72.4596 5.07553 72.2481 3.1722L72.0366 0L76.0547 0.211477C77.9581 0.211477 79.8614 0.211474 81.7647 0.422954C87.8976 1.05739 92.7617 3.80663 97.4143 8.24772L324.544 229.879C309.317 246.586 312.913 236.435 302.127 252.296Z" fill="#AFBECC"/>
<path fill-rule="evenodd" clip-rule="evenodd" d="M351.614 291.843C355.209 296.072 359.439 299.879 364.937 301.359C367.687 302.205 369.378 302.205 371.493 299.879C371.916 299.456 372.339 299.033 372.974 298.398C374.877 296.495 375.511 295.438 375.3 292.477C374.877 285.287 370.859 280.634 365.149 277.25C365.149 276.193 364.937 275.136 364.091 274.29L362.188 272.386C361.131 271.329 359.862 271.117 358.593 271.329L326.871 235.166L321.161 227.552L316.931 237.069L301.282 247.009L306.992 251.661L310.587 255.256L344.847 285.498C344.635 286.767 344.847 288.036 345.904 288.882L347.807 290.785C348.653 292.265 350.345 292.477 351.614 291.843Z" fill="#AFBECC"/>
<path fill-rule="evenodd" clip-rule="evenodd" d="M317.565 240.453L316.085 256.314L312.701 253.142L309.106 249.547L306.568 247.643L317.565 240.453ZM356.055 279.154L356.477 273.656L358.804 276.405L356.055 279.154ZM354.574 271.752L353.728 281.48L349.287 285.921L348.653 285.287L350.345 266.888L354.574 271.752ZM348.653 264.773L346.961 283.595L342.731 279.789L344.635 259.909L348.653 264.773ZM342.731 258.006L340.828 278.308L336.598 274.501L338.713 253.353L342.731 258.006ZM336.598 251.027L334.484 272.598L330.254 268.792L332.369 246.163L336.598 251.027ZM330.677 244.26L328.562 267.311L324.332 263.504L326.659 239.396L330.677 244.26ZM324.544 237.281L322.218 261.601L317.988 257.795L319.891 238.127L322.006 233.686L324.544 237.281Z" fill="black"/>
<path fill-rule="evenodd" clip-rule="evenodd" d="M352.248 287.613L358.381 281.057L358.592 281.268C360.284 282.537 362.399 284.229 364.091 286.344C365.994 288.459 367.475 290.996 367.898 294.169C367.898 294.592 368.532 295.015 368.955 295.015C369.378 295.015 369.801 294.38 369.801 293.957C369.378 290.573 367.686 287.613 365.571 285.286C363.668 282.96 361.342 281.057 359.65 279.788L360.919 278.519C367.475 281.691 372.127 285.921 372.55 292.9C372.55 294.803 372.339 295.015 371.07 296.495C370.647 296.918 370.224 297.341 369.589 297.975C368.321 299.244 367.898 299.033 365.994 298.61C361.13 297.129 356.478 293.746 352.248 287.613Z" fill="black"/>
<path fill-rule="evenodd" clip-rule="evenodd" d="M361.765 272.175C360.284 270.695 357.746 270.906 356.266 272.598L345.692 284.441C344.212 285.921 344.423 288.459 345.904 289.94L347.807 291.631C349.287 293.112 351.825 292.9 353.305 291.208L363.879 279.366C365.36 277.885 365.148 275.347 363.668 273.867L361.765 272.175Z" fill="#AFBECC"/>
<path fill-rule="evenodd" clip-rule="evenodd" d="M359.861 274.501L361.765 276.193C361.976 276.405 361.976 276.827 361.765 277.25L351.191 289.093C350.979 289.516 350.345 289.516 350.133 289.305L348.23 287.613C348.018 287.402 348.018 286.979 348.23 286.556L358.804 274.713C359.015 274.29 359.438 274.29 359.861 274.501Z" fill="black"/>
<path fill-rule="evenodd" clip-rule="evenodd" d="M312.913 245.105L235.722 166.223L75.6319 5.92104C75.4204 12.8999 77.7467 17.9754 82.6107 23.2624L303.185 249.335L312.913 245.105ZM317.142 240.876L238.26 163.685L78.1696 3.59476C85.1485 3.38328 90.224 5.70957 95.511 10.5736L321.583 231.148L317.142 240.876Z" fill="black"/>
<path fill-rule="evenodd" clip-rule="evenodd" d="M336.81 212.538C340.617 212.749 344.847 210.423 347.173 208.097C350.345 204.924 353.94 197.734 349.922 193.716C346.115 189.909 338.502 192.87 335.118 196.254C332.581 198.792 330.466 203.233 330.889 207.039L300.436 228.61L278.865 259.063C275.058 258.64 270.617 260.755 268.079 263.293C264.907 266.465 261.735 274.079 265.541 278.097C269.348 281.903 276.75 278.52 279.922 275.347C282.248 273.021 284.575 268.792 284.363 264.985L316.72 245.106L336.81 212.538Z" fill="#AFBECC"/>
<path fill-rule="evenodd" clip-rule="evenodd" d="M314.816 242.568L281.191 263.293C282.459 265.196 281.402 269.637 278.018 273.021C274.423 276.616 269.559 277.462 268.079 275.77C266.598 274.29 267.021 269.003 270.617 265.408C273.789 262.235 278.441 261.389 280.556 262.658L302.973 230.936L334.907 208.519C333.849 206.616 334.484 201.963 337.656 198.58C341.251 194.985 346.538 194.562 348.018 196.042C349.499 197.522 348.653 202.386 345.269 205.982C341.885 209.365 337.444 210.211 335.541 209.154L314.816 242.568Z" fill="black"/>
<path fill-rule="evenodd" clip-rule="evenodd" d="M286.478 256.103C286.055 256.526 286.055 257.16 286.266 257.583C286.689 258.006 287.324 257.794 287.746 257.372L309.106 237.704L311.644 241.511C312.067 241.933 313.547 241.722 313.97 241.511C314.393 241.088 314.393 239.819 313.97 239.396L310.163 236.858L329.408 215.498C329.831 215.075 330.254 214.653 329.831 214.23C329.408 213.807 328.985 214.441 328.562 214.864L308.049 234.532L305.511 231.148C305.088 230.725 303.819 231.148 303.607 231.571C303.185 231.994 302.973 232.84 303.396 233.263L306.991 235.589L286.478 256.103Z" fill="#AFBECC"/>
<path fill-rule="evenodd" clip-rule="evenodd" d="M93.819 291.42C90.2238 295.649 85.7827 299.244 80.2842 300.725C77.3235 301.359 75.8431 301.571 73.7283 299.244C73.3054 298.821 72.8824 298.399 72.248 297.764C70.3446 295.649 69.7102 294.803 69.9217 291.843C70.3446 284.652 74.5742 280 80.2842 276.828C80.2842 275.77 80.4957 274.713 81.3416 273.867L83.2449 271.963C84.3023 270.906 85.7827 270.695 87.0516 271.118L119.408 235.377L125.33 227.976L129.559 237.492L144.997 247.855L139.076 252.296L135.481 255.891L100.798 285.498C101.009 286.767 100.586 288.036 99.7404 288.882L97.8371 290.785C96.9911 291.843 95.2993 292.054 93.819 291.42Z" fill="#AFBECC"/>
<path fill-rule="evenodd" clip-rule="evenodd" d="M128.924 240.664L130.193 256.525L133.788 253.564L137.383 249.969L139.921 248.066L128.924 240.664ZM89.8003 278.73L89.3773 273.232L87.051 275.77L89.8003 278.73ZM91.2806 271.117L92.1266 280.845L96.5676 285.286L97.2021 284.652L95.7217 266.253L91.2806 271.117ZM97.4136 264.35L98.8939 283.171L103.335 279.365L101.855 259.486L97.4136 264.35ZM103.546 257.794L105.027 278.096L109.468 274.289L107.776 253.141L103.546 257.794ZM109.679 251.026L111.371 272.597L115.812 268.791L114.121 246.162L109.679 251.026ZM115.812 244.259L117.504 267.31L121.945 263.504L120.042 239.395L115.812 244.259ZM121.945 237.492L123.849 262.023L128.29 258.217L126.809 238.549L124.906 233.896L121.945 237.492Z" fill="black"/>
<path fill-rule="evenodd" clip-rule="evenodd" d="M93.3953 287.191L87.2624 280.635L87.0509 280.846C85.359 282.115 83.2442 283.807 81.3409 285.922C79.4376 288.036 77.9572 290.574 77.5343 293.746C77.5343 294.169 76.8998 294.592 76.4769 294.592C76.0539 294.592 75.6309 293.958 75.6309 293.535C76.0539 290.151 77.9572 287.191 79.8606 284.864C81.7639 282.538 84.0902 280.846 85.782 279.577L84.7246 278.308C78.1687 281.269 73.5162 285.499 72.8817 292.478C72.6702 294.381 72.8817 294.592 74.3621 296.073C74.785 296.496 75.208 296.919 75.8424 297.553C77.1113 298.822 77.5343 298.822 79.4376 298.188C84.3016 296.496 88.9542 293.112 93.3953 287.191Z" fill="black"/>
<path fill-rule="evenodd" clip-rule="evenodd" d="M142.67 252.296L364.302 25.1661C368.954 20.0906 371.703 14.8036 372.126 8.03624C372.338 6.3444 372.338 5.07553 372.549 3.1722L372.761 0L368.743 0.211477C366.839 0.211477 364.936 0.211474 363.033 0.422954C356.9 1.05739 352.036 3.80663 347.383 8.24772L120.253 229.879C135.48 246.586 131.673 236.435 142.67 252.296Z" fill="#AFBECC"/>
<path fill-rule="evenodd" clip-rule="evenodd" d="M84.0909 271.541C85.7827 270.06 88.109 270.483 89.5894 271.963L99.9519 284.018C101.432 285.71 101.221 288.036 99.5289 289.516L97.6256 291.208C95.9338 292.689 93.6075 292.266 92.1271 290.785L81.7646 278.731C80.4957 277.039 80.4957 274.713 82.1875 273.232L84.0909 271.541Z" fill="#AFBECC"/>
<path fill-rule="evenodd" clip-rule="evenodd" d="M85.9938 273.867L84.0905 275.559C83.879 275.771 83.879 276.193 84.0905 276.616L94.453 288.671C94.6645 289.094 95.299 289.094 95.5104 288.882L97.4138 287.19C97.6252 286.979 97.6252 286.556 97.4138 286.133L87.0512 274.079C86.8397 273.656 86.4168 273.656 85.9938 273.867Z" fill="black"/>
<path fill-rule="evenodd" clip-rule="evenodd" d="M131.674 245.105L208.864 166.223L369.166 5.92104C369.378 12.8999 367.051 17.9754 362.187 23.2624L141.402 249.123L131.674 245.105ZM127.656 240.876L206.538 163.685L366.628 3.59476C359.65 3.38328 354.574 5.70957 349.287 10.5736L123.426 231.148L127.656 240.876Z" fill="black"/>
<path fill-rule="evenodd" clip-rule="evenodd" d="M160.013 265.407C159.801 269.214 162.127 273.444 164.454 275.77C167.626 278.942 174.816 282.537 178.834 278.731C182.852 274.924 179.892 267.311 176.508 263.927C173.97 261.389 169.529 259.274 165.722 259.486L144.574 228.61L114.333 206.616C114.756 202.809 112.852 198.368 110.315 195.83C107.142 192.447 99.5292 189.274 95.7225 193.081C91.7044 196.888 95.0881 204.289 98.2603 207.462C100.587 209.788 104.816 212.326 108.623 212.114L127.868 244.682L160.013 265.407Z" fill="#AFBECC"/>
<path fill-rule="evenodd" clip-rule="evenodd" d="M130.404 242.779L110.314 208.731C108.411 209.788 103.969 208.942 100.797 205.559C97.4136 201.964 96.5677 197.099 98.048 195.619C99.7399 194.139 104.815 194.562 108.411 198.157C111.583 201.541 112.217 206.193 111.16 208.096L142.67 231.148L164.664 263.293C166.568 262.235 171.22 262.87 174.604 266.254C177.988 269.849 178.411 275.136 176.93 276.616C175.238 278.096 170.374 277.251 166.991 273.655C163.818 270.272 162.761 265.831 164.03 263.927L130.404 242.779Z" fill="black"/>
<path fill-rule="evenodd" clip-rule="evenodd" d="M117.293 214.229C116.87 213.806 116.236 213.595 115.813 214.018C115.39 214.441 115.601 215.075 116.024 215.498L135.269 237.069L131.462 239.607C131.039 240.03 131.251 241.51 131.462 241.933C131.885 242.356 133.154 242.356 133.577 241.933L136.115 238.127L157.263 257.583C157.686 258.006 158.109 258.429 158.532 258.006C158.955 257.583 158.532 257.16 157.897 256.737L138.441 236.012L141.825 233.686C142.248 233.263 141.825 231.994 141.613 231.782C141.19 231.359 140.344 231.148 139.921 231.571L137.595 235.166L117.293 214.229Z" fill="#AFBECC"/>
</g>
</svg>
