<svg width="22" height="24" viewBox="0 0 22 24" fill="none" xmlns="http://www.w3.org/2000/svg">
<path d="M4.875 12C4.65951 12 4.45285 12.0856 4.30048 12.238C4.1481 12.3903 4.0625 12.597 4.0625 12.8125V16.875C4.0625 17.0905 4.1481 17.2972 4.30048 17.4495C4.45285 17.6019 4.65951 17.6875 4.875 17.6875C5.09049 17.6875 5.29715 17.6019 5.44952 17.4495C5.6019 17.2972 5.6875 17.0905 5.6875 16.875V16.0625H6.09375C6.63247 16.0625 7.14913 15.8485 7.53006 15.4676C7.91099 15.0866 8.125 14.57 8.125 14.0312C8.125 13.4925 7.91099 12.9759 7.53006 12.5949C7.14913 12.214 6.63247 12 6.09375 12H4.875ZM6.09375 14.4375H5.6875V13.625H6.09375C6.20149 13.625 6.30483 13.6678 6.38101 13.744C6.4572 13.8202 6.5 13.9235 6.5 14.0312C6.5 14.139 6.4572 14.2423 6.38101 14.3185C6.30483 14.3947 6.20149 14.4375 6.09375 14.4375ZM8.9375 12.8125C8.9375 12.597 9.0231 12.3903 9.17548 12.238C9.32785 12.0856 9.53451 12 9.75 12H10.1562C10.9105 12 11.6338 12.2996 12.1671 12.8329C12.7004 13.3662 13 14.0895 13 14.8438C13 15.598 12.7004 16.3213 12.1671 16.8546C11.6338 17.3879 10.9105 17.6875 10.1562 17.6875H9.75C9.53451 17.6875 9.32785 17.6019 9.17548 17.4495C9.0231 17.2972 8.9375 17.0905 8.9375 16.875V12.8125ZM10.5625 15.9934C10.8006 15.9097 11.0068 15.7541 11.1526 15.5482C11.2985 15.3422 11.3768 15.0961 11.3768 14.8438C11.3768 14.5914 11.2985 14.3453 11.1526 14.1393C11.0068 13.9334 10.8006 13.7778 10.5625 13.6941V15.9934ZM13.8125 16.875V12.8125C13.8125 12.597 13.8981 12.3903 14.0505 12.238C14.2028 12.0856 14.4095 12 14.625 12H17.0625C17.278 12 17.4847 12.0856 17.637 12.238C17.7894 12.3903 17.875 12.597 17.875 12.8125C17.875 13.028 17.7894 13.2347 17.637 13.387C17.4847 13.5394 17.278 13.625 17.0625 13.625H15.4375V14.4375H17.0625C17.278 14.4375 17.4847 14.5231 17.637 14.6755C17.7894 14.8278 17.875 15.0345 17.875 15.25C17.875 15.4655 17.7894 15.6722 17.637 15.8245C17.4847 15.9769 17.278 16.0625 17.0625 16.0625H15.4375V16.875C15.4375 17.0905 15.3519 17.2972 15.1995 17.4495C15.0472 17.6019 14.8405 17.6875 14.625 17.6875C14.4095 17.6875 14.2028 17.6019 14.0505 17.4495C13.8981 17.2972 13.8125 17.0905 13.8125 16.875ZM2.4375 3.0625V9.5625H1.625C1.19402 9.5625 0.780698 9.73371 0.475951 10.0385C0.171205 10.3432 0 10.7565 0 11.1875V18.5C0 18.931 0.171205 19.3443 0.475951 19.649C0.780698 19.9538 1.19402 20.125 1.625 20.125H2.4375V20.9375C2.4375 21.584 2.69431 22.204 3.15143 22.6611C3.60855 23.1182 4.22853 23.375 4.875 23.375H16.25C16.8965 23.375 17.5165 23.1182 17.9736 22.6611C18.4307 22.204 18.6875 21.584 18.6875 20.9375V20.125H19.5C19.931 20.125 20.3443 19.9538 20.649 19.649C20.9538 19.3443 21.125 18.931 21.125 18.5V11.1875C21.125 10.7565 20.9538 10.3432 20.649 10.0385C20.3443 9.73371 19.931 9.5625 19.5 9.5625H18.6875V6.98525C18.6871 6.33912 18.4303 5.71956 17.9733 5.26275L14.0506 1.33838C13.5934 0.881521 12.9735 0.624923 12.3273 0.625H4.875C4.22853 0.625 3.60855 0.881807 3.15143 1.33893C2.69431 1.79605 2.4375 2.41603 2.4375 3.0625ZM4.875 2.25H10.5625V6.3125C10.5625 6.95897 10.8193 7.57895 11.2764 8.03607C11.7335 8.49319 12.3535 8.75 13 8.75H17.0625V9.5625H4.0625V3.0625C4.0625 2.84701 4.1481 2.64035 4.30048 2.48798C4.45285 2.3356 4.65951 2.25 4.875 2.25ZM4.0625 20.9375V20.125H17.0625V20.9375C17.0625 21.153 16.9769 21.3597 16.8245 21.512C16.6722 21.6644 16.4655 21.75 16.25 21.75H4.875C4.65951 21.75 4.45285 21.6644 4.30048 21.512C4.1481 21.3597 4.0625 21.153 4.0625 20.9375ZM17.0625 6.98525V7.125H13C12.7845 7.125 12.5778 7.0394 12.4255 6.88702C12.2731 6.73465 12.1875 6.52799 12.1875 6.3125V2.25H12.3273C12.5427 2.25005 12.7493 2.33568 12.9017 2.48806L16.8244 6.41081C16.9768 6.56315 17.0625 6.76978 17.0625 6.98525ZM1.625 11.1875H19.5V18.5H1.625V11.1875Z" fill="#BA0000"/>
</svg>
