<svg width="74" height="74" viewBox="0 0 74 74" fill="none" xmlns="http://www.w3.org/2000/svg">
<circle cx="37" cy="37" r="37" transform="matrix(-1 0 0 1 74 0)" fill="url(#paint0_linear_43_1581)" fill-opacity="0.3"/>
<path d="M49.325 38.5389L37.9153 49.3633C37.7026 49.5652 37.45 49.7253 37.172 49.8345C36.894 49.9438 36.5961 50 36.2952 50C35.6875 50 35.1047 49.771 34.675 49.3633C34.4622 49.1615 34.2935 48.9218 34.1783 48.6581C34.0632 48.3944 34.0039 48.1117 34.0039 47.8263C34.0039 47.2497 34.2453 46.6968 34.675 46.2892L44.4873 37.0018L34.675 27.7145C34.4611 27.5132 34.2913 27.2738 34.1755 27.01C34.0596 26.7462 34 26.4632 34 26.1774C34 25.8916 34.0596 25.6087 34.1755 25.3449C34.2913 25.0811 34.4611 24.8416 34.675 24.6404C34.8871 24.4375 35.1395 24.2764 35.4176 24.1665C35.6957 24.0566 35.9939 24 36.2952 24C36.5964 24 36.8947 24.0566 37.1727 24.1665C37.4508 24.2764 37.7032 24.4375 37.9153 24.6404L49.325 35.4648C49.5389 35.666 49.7087 35.9055 49.8245 36.1693C49.9404 36.4331 50 36.7161 50 37.0018C50 37.2876 49.9404 37.5706 49.8245 37.8344C49.7087 38.0982 49.5389 38.3377 49.325 38.5389Z" fill="white" fill-opacity="0.5"/>
<defs>
<linearGradient id="paint0_linear_43_1581" x1="0" y1="37" x2="67.5" y2="37" gradientUnits="userSpaceOnUse">
<stop stop-color="white"/>
<stop offset="1" stop-color="white" stop-opacity="0.1"/>
</linearGradient>
</defs>
</svg>
