<svg width="12" height="12" viewBox="0 0 12 12" fill="none" xmlns="http://www.w3.org/2000/svg">
<path d="M6.7101 11.7141L11.7101 6.71409C11.8011 6.61899 11.8725 6.50684 11.9201 6.38409C12.0201 6.14063 12.0201 5.86755 11.9201 5.62409C11.8725 5.50134 11.8011 5.3892 11.7101 5.29409L6.7101 0.294091C6.61687 0.200853 6.50618 0.126892 6.38435 0.076432C6.26253 0.0259717 6.13196 -2.56287e-07 6.0001 -2.6205e-07C5.7338 -2.73691e-07 5.47841 0.105788 5.2901 0.294091C5.1018 0.482395 4.99601 0.73779 4.99601 1.00409C4.99601 1.27039 5.1018 1.52579 5.2901 1.71409L8.5901 5.00409L1.0001 5.00409C0.734887 5.00409 0.480532 5.10945 0.292996 5.29698C0.10546 5.48452 0.0001037 5.73887 0.000103688 6.00409C0.000103676 6.26931 0.10546 6.52366 0.292996 6.7112C0.480532 6.89873 0.734887 7.00409 1.0001 7.00409L8.5901 7.00409L5.2901 10.2941C5.19637 10.3871 5.12198 10.4977 5.07121 10.6195C5.02044 10.7414 4.9943 10.8721 4.9943 11.0041C4.9943 11.1361 5.02044 11.2668 5.07121 11.3887C5.12198 11.5105 5.19637 11.6211 5.2901 11.7141C5.38307 11.8078 5.49367 11.8822 5.61553 11.933C5.73739 11.9838 5.86809 12.0099 6.0001 12.0099C6.13211 12.0099 6.26282 11.9838 6.38468 11.933C6.50654 11.8822 6.61714 11.8078 6.7101 11.7141Z" fill="white"/>
</svg>
