<svg width="51" height="51" viewBox="0 0 51 51" fill="none" xmlns="http://www.w3.org/2000/svg">
<mask id="mask0_41_330" style="mask-type:luminance" maskUnits="userSpaceOnUse" x="0" y="0" width="51" height="51">
<path d="M50 50V1.00001H1V50H50Z" fill="white" stroke="white" stroke-width="2"/>
</mask>
<g mask="url(#mask0_41_330)">
<path d="M27.1458 34.393C29.2447 36.3267 32.6056 39.7978 32.6056 42.1979C32.6056 44.5495 29.1896 44.4614 29.1896 44.4614" stroke="#667989" stroke-width="2" stroke-miterlimit="10" stroke-linecap="round" stroke-linejoin="round"/>
<path d="M21.8103 44.4614C21.8103 44.4614 18.3943 44.5495 18.3943 42.1979C18.3943 39.8959 21.7741 36.3723 23.8718 34.407" stroke="#667989" stroke-width="2" stroke-miterlimit="10" stroke-linecap="round" stroke-linejoin="round"/>
<path d="M4.7688 33.6188L3.88477 32.3081" stroke="#667989" stroke-width="2" stroke-miterlimit="10" stroke-linecap="round" stroke-linejoin="round"/>
<path d="M8.97453 39.8542L6.99878 36.925" stroke="#667989" stroke-width="2" stroke-miterlimit="10" stroke-linecap="round" stroke-linejoin="round"/>
<path d="M13.3227 46.3008L11.7769 44.009" stroke="#667989" stroke-width="2" stroke-miterlimit="10" stroke-linecap="round" stroke-linejoin="round"/>
<path d="M7.86041 34.9472C7.68758 33.864 6.66948 33.1261 5.58632 33.2989C4.50327 33.4718 3.76537 34.4899 3.93819 35.573C4.11091 36.6561 5.12912 37.394 6.21217 37.2213C7.29532 37.0484 8.03323 36.0303 7.86041 34.9472Z" stroke="#667989" stroke-width="2" stroke-miterlimit="10" stroke-linecap="round" stroke-linejoin="round"/>
<path d="M28.6785 42.3312C28.9874 43.2318 29.1642 44.2075 29.1642 45.117C29.1642 45.9703 28.5138 46.4517 27.8554 46.7203C26.8577 47.1275 26.0324 47.8688 25.5017 48.8067L25.4999 48.8099C24.9683 47.8706 24.1413 47.1292 23.1419 46.7217C22.4843 46.4536 21.8357 45.9723 21.8357 45.117C21.8357 42.3459 23.4762 38.9598 25.4999 38.9598C25.9546 38.9598 26.3901 39.1308 26.792 39.4273" stroke="#667989" stroke-width="2" stroke-miterlimit="10" stroke-linecap="round" stroke-linejoin="round"/>
<path d="M19.871 32.9517C17.8982 32.9517 16.2988 34.2404 16.2988 35.8299C16.2988 37.4195 17.8982 38.7081 19.871 38.7081" stroke="#667989" stroke-width="2" stroke-miterlimit="10" stroke-linecap="round" stroke-linejoin="round"/>
<path d="M20.1786 32.9676C19.8775 33.3718 19.7153 33.8626 19.7161 34.3666C19.7161 35.504 20.5254 36.4524 21.5997 36.6674" stroke="#667989" stroke-width="2" stroke-miterlimit="10" stroke-linecap="round" stroke-linejoin="round"/>
<path d="M11.292 39.7437L16.5653 37.1369" stroke="#667989" stroke-width="2" stroke-miterlimit="10" stroke-linecap="round" stroke-linejoin="round"/>
<path d="M19.1027 39.9108L12.6865 42.1512" stroke="#667989" stroke-width="2" stroke-miterlimit="10" stroke-linecap="round" stroke-linejoin="round"/>
<path d="M9.39388 42.4024C8.89853 42.4814 8.38365 42.2548 8.11779 41.7946C7.77344 41.1985 7.97754 40.4361 8.5737 40.0917L9.68843 39.4479C10.2844 39.1034 11.0469 39.3076 11.3912 39.9038C11.7356 40.4998 11.5315 41.2623 10.9353 41.6066L9.82071 42.2505C9.68893 42.3268 9.54425 42.3783 9.39388 42.4024Z" stroke="#667989" stroke-width="2" stroke-miterlimit="10" stroke-linecap="round" stroke-linejoin="round"/>
<path d="M10.9308 41.6101C11.5268 41.2656 12.2893 41.4698 12.6337 42.066C12.978 42.6621 12.7738 43.4245 12.1778 43.7688L11.063 44.4127C10.9313 44.489 10.7866 44.5405 10.6362 44.5646C10.141 44.6436 9.62598 44.4171 9.36022 43.9568C9.01587 43.3607 9.21997 42.5982 9.81613 42.254" stroke="#667989" stroke-width="2" stroke-miterlimit="10" stroke-linecap="round" stroke-linejoin="round"/>
<path d="M43.8115 42.1512C45.2103 41.6782 46.2171 40.3549 46.2171 38.7965C46.2171 36.8411 44.6319 35.2559 42.6765 35.2559C40.7212 35.2559 39.136 36.8411 39.136 38.7965C39.136 39.2849 39.2348 39.7502 39.4136 40.1734" stroke="#667989" stroke-width="2" stroke-miterlimit="10" stroke-linecap="round" stroke-linejoin="round"/>
<path d="M31.127 32.9517C33.0998 32.9517 34.699 34.2404 34.699 35.8299C34.699 37.4195 33.0998 38.7081 31.127 38.7081" stroke="#667989" stroke-width="2" stroke-miterlimit="10" stroke-linecap="round" stroke-linejoin="round"/>
<path d="M30.8189 32.9673C31.1202 33.3716 31.2825 33.8626 31.2817 34.3668C31.2817 35.4953 30.4848 36.4378 29.4231 36.6624" stroke="#667989" stroke-width="2" stroke-miterlimit="10" stroke-linecap="round" stroke-linejoin="round"/>
<path d="M39.275 39.8246L34.4048 37.1247" stroke="#667989" stroke-width="2" stroke-miterlimit="10" stroke-linecap="round" stroke-linejoin="round"/>
<path d="M31.895 39.9109L38.5255 42.4814" stroke="#667989" stroke-width="2" stroke-miterlimit="10" stroke-linecap="round" stroke-linejoin="round"/>
<path d="M40.7733 43.1982C40.7383 43.6985 41.0095 44.1915 41.4914 44.4156C42.1156 44.706 42.8569 44.4354 43.1473 43.8112L43.6902 42.644C43.9807 42.0198 43.71 41.2784 43.0858 40.9881C42.4616 40.6976 41.7202 40.9683 41.4298 41.5925L40.8869 42.7597C40.8225 42.8977 40.784 43.0463 40.7733 43.1982Z" stroke="#667989" stroke-width="2" stroke-miterlimit="10" stroke-linecap="round" stroke-linejoin="round"/>
<path d="M41.4271 41.5971C41.7175 40.973 41.4468 40.2315 40.8226 39.9411C40.1984 39.6507 39.457 39.9214 39.1666 40.5456L38.6236 41.7128C38.5593 41.8507 38.5208 41.9994 38.5101 42.1512C38.4751 42.6517 38.7463 43.1445 39.2282 43.3688C39.8523 43.6591 40.5938 43.3885 40.8841 42.7642" stroke="#667989" stroke-width="2" stroke-miterlimit="10" stroke-linecap="round" stroke-linejoin="round"/>
<path d="M27.8951 6.3783H23.1049L22.5369 5.34067C22.0358 4.42555 22.599 3.291 23.631 3.13681C23.8618 3.1023 24.0974 3.12211 24.3193 3.19468C25.0864 3.44579 25.9136 3.44579 26.6808 3.19468C26.9026 3.12211 27.1383 3.1023 27.3691 3.13681C28.401 3.291 28.9642 4.42555 28.4632 5.34067L27.8951 6.3783Z" stroke="#667989" stroke-width="2" stroke-miterlimit="10" stroke-linecap="round" stroke-linejoin="round"/>
<path d="M11.8 13.772L18.2147 20.2415" stroke="#667989" stroke-width="2" stroke-miterlimit="10" stroke-linecap="round" stroke-linejoin="round"/>
<path d="M4.90016 14.7229C4.36427 12.9413 4.31167 10.9987 4.83562 9.09527C5.06074 8.27758 6.08582 8.00893 6.68307 8.61127L9.33736 11.2882" stroke="#667989" stroke-width="2" stroke-miterlimit="10" stroke-linecap="round" stroke-linejoin="round"/>
<path d="M5.22692 21.4507C2.69395 20.0792 0.940229 17.4743 0.749277 14.4472C0.698277 13.6384 1.54087 13.0769 2.26772 13.4352L18.205 21.2924" stroke="#667989" stroke-width="2" stroke-miterlimit="10" stroke-linecap="round" stroke-linejoin="round"/>
<path d="M8.45037 27.0914C5.47125 27.2913 2.56455 25.7339 1.1257 22.9829C0.727857 22.2222 1.30131 21.3158 2.15904 21.3494L18.2138 21.9783" stroke="#667989" stroke-width="2" stroke-miterlimit="10" stroke-linecap="round" stroke-linejoin="round"/>
<path d="M14.1679 30.6005C11.5829 31.6863 8.53372 31.3948 6.16053 29.6457C5.57881 29.217 5.67822 28.3196 6.33963 28.0285L18.1986 22.8088" stroke="#667989" stroke-width="2" stroke-miterlimit="10" stroke-linecap="round" stroke-linejoin="round"/>
<path d="M17.6796 33.5569C16.4948 34.3402 15.0753 34.6754 12.7852 34.2751C12.0641 34.1167 11.7839 33.2379 12.2802 32.6914L18.1986 26.1743" stroke="#667989" stroke-width="2" stroke-miterlimit="10" stroke-linecap="round" stroke-linejoin="round"/>
<path d="M46.1101 14.6885C46.6519 12.866 46.6707 10.9279 46.1644 9.09514C45.9392 8.27745 44.9142 8.0088 44.3169 8.61104L32.8035 20.2229" stroke="#667989" stroke-width="2" stroke-miterlimit="10" stroke-linecap="round" stroke-linejoin="round"/>
<path d="M49.9375 16.2677C50.107 15.6739 50.212 15.0635 50.2507 14.4472C50.3017 13.6384 49.4591 13.0768 48.7321 13.4352L32.7927 21.2935" stroke="#667989" stroke-width="2" stroke-miterlimit="10" stroke-linecap="round" stroke-linejoin="round"/>
<path d="M45.7634 21.4557C46.7533 20.9209 47.6285 20.197 48.3395 19.325" stroke="#667989" stroke-width="2" stroke-miterlimit="10" stroke-linecap="round" stroke-linejoin="round"/>
<path d="M42.5481 27.0912C45.5277 27.2919 48.4352 25.7343 49.8742 22.9829C50.2721 22.2221 49.6987 21.3158 48.8409 21.3494L32.7927 21.9781" stroke="#667989" stroke-width="2" stroke-miterlimit="10" stroke-linecap="round" stroke-linejoin="round"/>
<path d="M36.8338 30.601C39.4184 31.686 42.4668 31.3941 44.8394 29.6455C45.421 29.2168 45.3217 28.3193 44.6603 28.0283L32.7927 22.8046" stroke="#667989" stroke-width="2" stroke-miterlimit="10" stroke-linecap="round" stroke-linejoin="round"/>
<path d="M33.4347 33.6329C34.6764 34.4117 36.1181 34.674 38.2148 34.2749C38.9358 34.1165 39.2159 33.2377 38.7197 32.6913L32.7927 26.1647" stroke="#667989" stroke-width="2" stroke-miterlimit="10" stroke-linecap="round" stroke-linejoin="round"/>
<path d="M20.8291 10.3105L21.8036 9.89458C23.1462 9.32133 23.6887 7.71682 23.1058 6.37847" stroke="#667989" stroke-width="2" stroke-miterlimit="10" stroke-linecap="round" stroke-linejoin="round"/>
<path d="M17.7375 10.3105L17.3536 8.6651C17.1931 7.977 17.7153 7.31888 18.4219 7.31888H20.1446C20.8511 7.31888 21.3734 7.977 21.2129 8.6651L20.8289 10.3105" stroke="#667989" stroke-width="2" stroke-miterlimit="10" stroke-linecap="round" stroke-linejoin="round"/>
<path d="M19.2832 7.21936V6.10065" stroke="#667989" stroke-width="2" stroke-miterlimit="10" stroke-linecap="round" stroke-linejoin="round"/>
<path d="M25.5 18.682V15.8948C25.5 12.8106 22.9998 10.3104 19.9156 10.3104H18.5052C16.648 10.3104 15.2883 12.0606 15.7475 13.8602H18.0677C19.9161 13.8602 21.1709 15.739 20.4626 17.4464L19.9555 18.669" stroke="#667989" stroke-width="2" stroke-miterlimit="10" stroke-linecap="round" stroke-linejoin="round"/>
<path d="M30.1711 10.3105L29.1966 9.89458C27.8539 9.32133 27.3123 7.71682 27.8952 6.37847" stroke="#667989" stroke-width="2" stroke-miterlimit="10" stroke-linecap="round" stroke-linejoin="round"/>
<path d="M33.2623 10.3105L33.6462 8.6651C33.8068 7.977 33.2845 7.31888 32.578 7.31888H30.8553C30.1487 7.31888 29.6265 7.977 29.787 8.6651L30.171 10.3105" stroke="#667989" stroke-width="2" stroke-miterlimit="10" stroke-linecap="round" stroke-linejoin="round"/>
<path d="M31.7168 7.21936V6.10065" stroke="#667989" stroke-width="2" stroke-miterlimit="10" stroke-linecap="round" stroke-linejoin="round"/>
<path d="M25.5 15.8948C25.5 12.8106 28.0002 10.3104 31.0844 10.3104H32.4948C34.352 10.3104 35.7117 12.0606 35.2525 13.8602H32.9323C31.0839 13.8602 29.8291 15.739 30.5373 17.4463L31.0498 18.6819" stroke="#667989" stroke-width="2" stroke-miterlimit="10" stroke-linecap="round" stroke-linejoin="round"/>
<path d="M42.6768 34.101V35.2299" stroke="#667989" stroke-width="2" stroke-miterlimit="10" stroke-linecap="round" stroke-linejoin="round"/>
<path d="M31.2805 32.9509C29.5253 32.9469 27.8397 33.6365 26.5905 34.8695L25.5001 35.9459L24.4096 34.8695C23.1605 33.6365 21.4748 32.9469 19.7196 32.9509C18.8921 32.9528 18.2205 32.2825 18.2205 31.455V20.1899C18.2205 19.3638 18.8901 18.6941 19.7162 18.6941H31.2839C32.1101 18.6941 32.7798 19.3638 32.7798 20.1899V31.455C32.7798 32.2825 32.108 32.9528 31.2805 32.9509Z" stroke="#667989" stroke-width="2" stroke-miterlimit="10" stroke-linecap="round" stroke-linejoin="round"/>
<path d="M21.2119 24.2286V21.6857H29.788V29.9626C28.9897 29.9596 28.2001 30.1286 27.4729 30.458C26.7458 30.7875 26.0981 31.2698 25.574 31.872L25.4999 31.957L25.4259 31.872C24.9018 31.2698 24.2541 30.7875 23.527 30.4581C22.7998 30.1286 22.0102 29.9596 21.2119 29.9626V27.715" stroke="#667989" stroke-width="2" stroke-miterlimit="10" stroke-linecap="round" stroke-linejoin="round"/>
<path d="M25.5 3.38184V2.19011" stroke="#667989" stroke-width="2" stroke-miterlimit="10" stroke-linecap="round" stroke-linejoin="round"/>
</g>
</svg>
