<svg width="38" height="49" viewBox="0 0 38 49" fill="none" xmlns="http://www.w3.org/2000/svg">
<mask id="path-1-outside-1_41_270" maskUnits="userSpaceOnUse" x="0.232178" y="0" width="38" height="49" fill="black">
<rect fill="white" x="0.232178" width="38" height="49"/>
<path d="M1.23218 37.026C1.23228 37.6294 1.39407 38.2218 1.70072 38.7415C2.00737 39.2612 2.44767 39.6892 2.97583 39.9811L7.29583 42.3602C7.47765 42.4604 7.69181 42.4842 7.8912 42.4264C8.09058 42.3687 8.25886 42.2341 8.359 42.0523C8.45915 41.8704 8.48297 41.6563 8.42522 41.4569C8.36746 41.2575 8.23287 41.0892 8.05105 40.9891L3.73105 38.6107C3.44802 38.4541 3.21213 38.2245 3.04793 37.9458C2.88373 37.6671 2.79722 37.3494 2.7974 37.026V35.9538C2.85687 35.9913 2.91322 36.032 2.97583 36.0681L15.9217 43.1898C16.9367 43.7463 18.0755 44.038 19.233 44.038C20.3904 44.038 21.5293 43.7463 22.5442 43.1898L27.4597 40.482C27.5498 40.4324 27.6292 40.3655 27.6934 40.2853C27.7576 40.205 27.8053 40.1129 27.8339 40.0142C27.8625 39.9154 27.8714 39.812 27.86 39.7099C27.8487 39.6077 27.8173 39.5088 27.7677 39.4188C27.7181 39.3288 27.6513 39.2494 27.571 39.1852C27.4907 39.121 27.3986 39.0732 27.2999 39.0446C27.1005 38.9869 26.8863 39.0107 26.7045 39.1108L21.7913 41.8179C21.0046 42.2398 20.1257 42.4606 19.233 42.4606C18.3402 42.4606 17.4614 42.2398 16.6746 41.8179L3.73105 34.6961C3.44183 34.5382 3.20151 34.3039 3.03629 34.0188C2.87106 33.7337 2.78727 33.4087 2.79406 33.0793C2.80084 32.7498 2.89793 32.4285 3.07474 32.1505C3.25156 31.8724 3.50131 31.6482 3.79679 31.5023L8.66226 29.0676L8.03618 31.1611C7.84337 31.8121 7.86632 32.5079 8.1016 33.1448C8.33687 33.7816 8.77185 34.3253 9.34157 34.6946C12.3009 36.5887 15.7418 37.5934 19.2555 37.5894C22.7691 37.5854 26.2077 36.5728 29.1627 34.6719C29.7253 34.3123 30.1577 33.7816 30.3962 33.158C30.6348 32.5343 30.6668 31.8505 30.4877 31.2073L29.9132 29.1177L34.6699 31.5023C34.9652 31.6482 35.2149 31.8723 35.3916 32.1503C35.5683 32.4282 35.6654 32.7493 35.6723 33.0786C35.6792 33.408 35.5955 33.7328 35.4305 34.0179C35.2655 34.303 35.0254 34.5373 34.7364 34.6954L29.446 37.6067C29.2642 37.7068 29.1296 37.8751 29.0718 38.0745C29.0141 38.2738 29.0379 38.488 29.138 38.6698C29.2382 38.8517 29.4065 38.9862 29.6059 39.044C29.8052 39.1017 30.0194 39.0779 30.2012 38.9778L35.4917 36.0657C35.5543 36.032 35.6098 35.9874 35.6693 35.9514V37.026C35.6696 37.3493 35.5832 37.6667 35.4191 37.9453C35.2551 38.2239 35.0193 38.4534 34.7364 38.61L21.7937 45.7317C21.0068 46.1536 20.1278 46.3744 19.2349 46.3744C18.3421 46.3744 17.4631 46.1536 16.6762 45.7317L10.7996 42.4995C10.7093 42.4466 10.6094 42.4123 10.5057 42.3986C10.402 42.385 10.2966 42.3923 10.1957 42.4201C10.0948 42.4478 10.0006 42.4956 9.91848 42.5604C9.83639 42.6253 9.76813 42.7059 9.71773 42.7976C9.66734 42.8893 9.63584 42.9901 9.6251 43.0942C9.61435 43.1982 9.62458 43.3034 9.65518 43.4034C9.68577 43.5035 9.73611 43.5964 9.80323 43.6766C9.87034 43.7569 9.95286 43.8228 10.0459 43.8707L15.9241 47.1036C16.939 47.6601 18.0778 47.9519 19.2353 47.9519C20.3928 47.9519 21.5316 47.6601 22.5465 47.1036L35.4917 39.9819C36.0195 39.6897 36.4593 39.2614 36.7654 38.7415C37.0715 38.2216 37.2327 37.6292 37.2322 37.026V33.0652C37.2242 32.4483 37.0458 31.8456 36.7169 31.3237C36.3879 30.8018 35.9211 30.381 35.368 30.1077L29.3521 27.0923L22.8564 3.48179C22.6615 2.77517 22.2422 2.15105 21.6617 1.70346C21.0812 1.25588 20.371 1.00908 19.638 1.00025C18.9051 0.991415 18.1891 1.22103 17.598 1.6545C17.0069 2.08797 16.5727 2.70181 16.3608 3.40353L15.9452 4.79187C15.9157 4.89033 15.9059 4.99363 15.9163 5.09588C15.9268 5.19813 15.9572 5.29733 16.006 5.3878C16.1045 5.57053 16.2715 5.70665 16.4704 5.76622C16.6692 5.82579 16.8836 5.80393 17.0663 5.70545C17.249 5.60697 17.3851 5.43993 17.4447 5.24109L17.8603 3.85431C17.9735 3.47689 18.2064 3.14655 18.5239 2.91315C18.8413 2.67975 19.2261 2.55596 19.6201 2.56047C20.0141 2.56498 20.396 2.69754 20.708 2.93814C21.0201 3.17874 21.2454 3.51432 21.3499 3.89422L23.0153 9.94848C20.6936 10.272 18.3399 10.2944 16.0125 10.015L16.5447 8.23926C16.5742 8.14081 16.584 8.0375 16.5736 7.93525C16.5632 7.833 16.5327 7.73381 16.4839 7.64333C16.4352 7.55286 16.3691 7.47287 16.2894 7.40794C16.2097 7.34301 16.118 7.29441 16.0196 7.26492C15.9211 7.23542 15.8178 7.22561 15.7156 7.23603C15.6133 7.24646 15.5141 7.27692 15.4236 7.32569C15.3332 7.37445 15.2532 7.44056 15.1882 7.52023C15.1233 7.59991 15.0747 7.69159 15.0452 7.79005L9.28053 27.0094L3.09792 30.1038C2.54405 30.3773 2.07663 30.7987 1.74736 31.3213C1.41808 31.844 1.23978 32.4475 1.23218 33.0652V37.026ZM19.2322 11.779C20.6383 11.7769 22.0423 11.6722 23.4332 11.466L24.4506 15.1779C21.7579 15.7111 18.9996 15.8306 16.2708 15.5324C16.1685 15.5213 16.0651 15.5304 15.9664 15.5593C15.8676 15.5882 15.7756 15.6362 15.6954 15.7007C15.6153 15.7652 15.5486 15.8448 15.4992 15.935C15.4498 16.0252 15.4187 16.1243 15.4076 16.2266C15.3965 16.3288 15.4056 16.4323 15.4345 16.531C15.4634 16.6297 15.5114 16.7218 15.5759 16.8019C15.6403 16.8821 15.72 16.9488 15.8102 16.9982C15.9004 17.0476 15.9995 17.0787 16.1017 17.0898C17.1413 17.2038 18.1864 17.2608 19.2322 17.2604C21.1268 17.2575 23.0165 17.0661 24.8732 16.6891L25.9313 20.552C21.6487 21.7466 17.1246 21.775 12.8273 20.6342L15.561 11.5207C16.7778 11.6864 18.0041 11.7726 19.2322 11.779ZM28.2784 33.379C25.5782 35.1086 22.4388 36.0279 19.2322 36.0279C16.0256 36.0279 12.8862 35.1086 10.186 33.379C9.90126 33.1942 9.68387 32.9223 9.56625 32.6038C9.44863 32.2854 9.43707 31.9374 9.53331 31.6119L10.6564 27.8702C13.4089 28.8291 16.3025 29.3208 19.2173 29.3251C21.4367 29.3242 23.6471 29.0428 25.7959 28.4877C25.997 28.4358 26.1693 28.3061 26.2748 28.1272C26.3804 27.9483 26.4105 27.7348 26.3586 27.5337C26.3067 27.3326 26.1771 27.1603 25.9981 27.0548C25.8192 26.9492 25.6057 26.9191 25.4046 26.971C20.6848 28.1924 15.7083 27.9816 11.1087 26.3653L12.3773 22.1392C14.6119 22.7455 16.9168 23.0539 19.2322 23.0564C21.6382 23.0514 24.0321 22.7161 26.3469 22.0601L28.9764 31.6244C29.0657 31.9531 29.0459 32.302 28.9201 32.6185C28.7942 32.935 28.569 33.2014 28.2784 33.379Z"/>
</mask>
<path d="M1.23218 37.026C1.23228 37.6294 1.39407 38.2218 1.70072 38.7415C2.00737 39.2612 2.44767 39.6892 2.97583 39.9811L7.29583 42.3602C7.47765 42.4604 7.69181 42.4842 7.8912 42.4264C8.09058 42.3687 8.25886 42.2341 8.359 42.0523C8.45915 41.8704 8.48297 41.6563 8.42522 41.4569C8.36746 41.2575 8.23287 41.0892 8.05105 40.9891L3.73105 38.6107C3.44802 38.4541 3.21213 38.2245 3.04793 37.9458C2.88373 37.6671 2.79722 37.3494 2.7974 37.026V35.9538C2.85687 35.9913 2.91322 36.032 2.97583 36.0681L15.9217 43.1898C16.9367 43.7463 18.0755 44.038 19.233 44.038C20.3904 44.038 21.5293 43.7463 22.5442 43.1898L27.4597 40.482C27.5498 40.4324 27.6292 40.3655 27.6934 40.2853C27.7576 40.205 27.8053 40.1129 27.8339 40.0142C27.8625 39.9154 27.8714 39.812 27.86 39.7099C27.8487 39.6077 27.8173 39.5088 27.7677 39.4188C27.7181 39.3288 27.6513 39.2494 27.571 39.1852C27.4907 39.121 27.3986 39.0732 27.2999 39.0446C27.1005 38.9869 26.8863 39.0107 26.7045 39.1108L21.7913 41.8179C21.0046 42.2398 20.1257 42.4606 19.233 42.4606C18.3402 42.4606 17.4614 42.2398 16.6746 41.8179L3.73105 34.6961C3.44183 34.5382 3.20151 34.3039 3.03629 34.0188C2.87106 33.7337 2.78727 33.4087 2.79406 33.0793C2.80084 32.7498 2.89793 32.4285 3.07474 32.1505C3.25156 31.8724 3.50131 31.6482 3.79679 31.5023L8.66226 29.0676L8.03618 31.1611C7.84337 31.8121 7.86632 32.5079 8.1016 33.1448C8.33687 33.7816 8.77185 34.3253 9.34157 34.6946C12.3009 36.5887 15.7418 37.5934 19.2555 37.5894C22.7691 37.5854 26.2077 36.5728 29.1627 34.6719C29.7253 34.3123 30.1577 33.7816 30.3962 33.158C30.6348 32.5343 30.6668 31.8505 30.4877 31.2073L29.9132 29.1177L34.6699 31.5023C34.9652 31.6482 35.2149 31.8723 35.3916 32.1503C35.5683 32.4282 35.6654 32.7493 35.6723 33.0786C35.6792 33.408 35.5955 33.7328 35.4305 34.0179C35.2655 34.303 35.0254 34.5373 34.7364 34.6954L29.446 37.6067C29.2642 37.7068 29.1296 37.8751 29.0718 38.0745C29.0141 38.2738 29.0379 38.488 29.138 38.6698C29.2382 38.8517 29.4065 38.9862 29.6059 39.044C29.8052 39.1017 30.0194 39.0779 30.2012 38.9778L35.4917 36.0657C35.5543 36.032 35.6098 35.9874 35.6693 35.9514V37.026C35.6696 37.3493 35.5832 37.6667 35.4191 37.9453C35.2551 38.2239 35.0193 38.4534 34.7364 38.61L21.7937 45.7317C21.0068 46.1536 20.1278 46.3744 19.2349 46.3744C18.3421 46.3744 17.4631 46.1536 16.6762 45.7317L10.7996 42.4995C10.7093 42.4466 10.6094 42.4123 10.5057 42.3986C10.402 42.385 10.2966 42.3923 10.1957 42.4201C10.0948 42.4478 10.0006 42.4956 9.91848 42.5604C9.83639 42.6253 9.76813 42.7059 9.71773 42.7976C9.66734 42.8893 9.63584 42.9901 9.6251 43.0942C9.61435 43.1982 9.62458 43.3034 9.65518 43.4034C9.68577 43.5035 9.73611 43.5964 9.80323 43.6766C9.87034 43.7569 9.95286 43.8228 10.0459 43.8707L15.9241 47.1036C16.939 47.6601 18.0778 47.9519 19.2353 47.9519C20.3928 47.9519 21.5316 47.6601 22.5465 47.1036L35.4917 39.9819C36.0195 39.6897 36.4593 39.2614 36.7654 38.7415C37.0715 38.2216 37.2327 37.6292 37.2322 37.026V33.0652C37.2242 32.4483 37.0458 31.8456 36.7169 31.3237C36.3879 30.8018 35.9211 30.381 35.368 30.1077L29.3521 27.0923L22.8564 3.48179C22.6615 2.77517 22.2422 2.15105 21.6617 1.70346C21.0812 1.25588 20.371 1.00908 19.638 1.00025C18.9051 0.991415 18.1891 1.22103 17.598 1.6545C17.0069 2.08797 16.5727 2.70181 16.3608 3.40353L15.9452 4.79187C15.9157 4.89033 15.9059 4.99363 15.9163 5.09588C15.9268 5.19813 15.9572 5.29733 16.006 5.3878C16.1045 5.57053 16.2715 5.70665 16.4704 5.76622C16.6692 5.82579 16.8836 5.80393 17.0663 5.70545C17.249 5.60697 17.3851 5.43993 17.4447 5.24109L17.8603 3.85431C17.9735 3.47689 18.2064 3.14655 18.5239 2.91315C18.8413 2.67975 19.2261 2.55596 19.6201 2.56047C20.0141 2.56498 20.396 2.69754 20.708 2.93814C21.0201 3.17874 21.2454 3.51432 21.3499 3.89422L23.0153 9.94848C20.6936 10.272 18.3399 10.2944 16.0125 10.015L16.5447 8.23926C16.5742 8.14081 16.584 8.0375 16.5736 7.93525C16.5632 7.833 16.5327 7.73381 16.4839 7.64333C16.4352 7.55286 16.3691 7.47287 16.2894 7.40794C16.2097 7.34301 16.118 7.29441 16.0196 7.26492C15.9211 7.23542 15.8178 7.22561 15.7156 7.23603C15.6133 7.24646 15.5141 7.27692 15.4236 7.32569C15.3332 7.37445 15.2532 7.44056 15.1882 7.52023C15.1233 7.59991 15.0747 7.69159 15.0452 7.79005L9.28053 27.0094L3.09792 30.1038C2.54405 30.3773 2.07663 30.7987 1.74736 31.3213C1.41808 31.844 1.23978 32.4475 1.23218 33.0652V37.026ZM19.2322 11.779C20.6383 11.7769 22.0423 11.6722 23.4332 11.466L24.4506 15.1779C21.7579 15.7111 18.9996 15.8306 16.2708 15.5324C16.1685 15.5213 16.0651 15.5304 15.9664 15.5593C15.8676 15.5882 15.7756 15.6362 15.6954 15.7007C15.6153 15.7652 15.5486 15.8448 15.4992 15.935C15.4498 16.0252 15.4187 16.1243 15.4076 16.2266C15.3965 16.3288 15.4056 16.4323 15.4345 16.531C15.4634 16.6297 15.5114 16.7218 15.5759 16.8019C15.6403 16.8821 15.72 16.9488 15.8102 16.9982C15.9004 17.0476 15.9995 17.0787 16.1017 17.0898C17.1413 17.2038 18.1864 17.2608 19.2322 17.2604C21.1268 17.2575 23.0165 17.0661 24.8732 16.6891L25.9313 20.552C21.6487 21.7466 17.1246 21.775 12.8273 20.6342L15.561 11.5207C16.7778 11.6864 18.0041 11.7726 19.2322 11.779ZM28.2784 33.379C25.5782 35.1086 22.4388 36.0279 19.2322 36.0279C16.0256 36.0279 12.8862 35.1086 10.186 33.379C9.90126 33.1942 9.68387 32.9223 9.56625 32.6038C9.44863 32.2854 9.43707 31.9374 9.53331 31.6119L10.6564 27.8702C13.4089 28.8291 16.3025 29.3208 19.2173 29.3251C21.4367 29.3242 23.6471 29.0428 25.7959 28.4877C25.997 28.4358 26.1693 28.3061 26.2748 28.1272C26.3804 27.9483 26.4105 27.7348 26.3586 27.5337C26.3067 27.3326 26.1771 27.1603 25.9981 27.0548C25.8192 26.9492 25.6057 26.9191 25.4046 26.971C20.6848 28.1924 15.7083 27.9816 11.1087 26.3653L12.3773 22.1392C14.6119 22.7455 16.9168 23.0539 19.2322 23.0564C21.6382 23.0514 24.0321 22.7161 26.3469 22.0601L28.9764 31.6244C29.0657 31.9531 29.0459 32.302 28.9201 32.6185C28.7942 32.935 28.569 33.2014 28.2784 33.379Z" fill="#667989"/>
<path d="M1.23218 37.026C1.23228 37.6294 1.39407 38.2218 1.70072 38.7415C2.00737 39.2612 2.44767 39.6892 2.97583 39.9811L7.29583 42.3602C7.47765 42.4604 7.69181 42.4842 7.8912 42.4264C8.09058 42.3687 8.25886 42.2341 8.359 42.0523C8.45915 41.8704 8.48297 41.6563 8.42522 41.4569C8.36746 41.2575 8.23287 41.0892 8.05105 40.9891L3.73105 38.6107C3.44802 38.4541 3.21213 38.2245 3.04793 37.9458C2.88373 37.6671 2.79722 37.3494 2.7974 37.026V35.9538C2.85687 35.9913 2.91322 36.032 2.97583 36.0681L15.9217 43.1898C16.9367 43.7463 18.0755 44.038 19.233 44.038C20.3904 44.038 21.5293 43.7463 22.5442 43.1898L27.4597 40.482C27.5498 40.4324 27.6292 40.3655 27.6934 40.2853C27.7576 40.205 27.8053 40.1129 27.8339 40.0142C27.8625 39.9154 27.8714 39.812 27.86 39.7099C27.8487 39.6077 27.8173 39.5088 27.7677 39.4188C27.7181 39.3288 27.6513 39.2494 27.571 39.1852C27.4907 39.121 27.3986 39.0732 27.2999 39.0446C27.1005 38.9869 26.8863 39.0107 26.7045 39.1108L21.7913 41.8179C21.0046 42.2398 20.1257 42.4606 19.233 42.4606C18.3402 42.4606 17.4614 42.2398 16.6746 41.8179L3.73105 34.6961C3.44183 34.5382 3.20151 34.3039 3.03629 34.0188C2.87106 33.7337 2.78727 33.4087 2.79406 33.0793C2.80084 32.7498 2.89793 32.4285 3.07474 32.1505C3.25156 31.8724 3.50131 31.6482 3.79679 31.5023L8.66226 29.0676L8.03618 31.1611C7.84337 31.8121 7.86632 32.5079 8.1016 33.1448C8.33687 33.7816 8.77185 34.3253 9.34157 34.6946C12.3009 36.5887 15.7418 37.5934 19.2555 37.5894C22.7691 37.5854 26.2077 36.5728 29.1627 34.6719C29.7253 34.3123 30.1577 33.7816 30.3962 33.158C30.6348 32.5343 30.6668 31.8505 30.4877 31.2073L29.9132 29.1177L34.6699 31.5023C34.9652 31.6482 35.2149 31.8723 35.3916 32.1503C35.5683 32.4282 35.6654 32.7493 35.6723 33.0786C35.6792 33.408 35.5955 33.7328 35.4305 34.0179C35.2655 34.303 35.0254 34.5373 34.7364 34.6954L29.446 37.6067C29.2642 37.7068 29.1296 37.8751 29.0718 38.0745C29.0141 38.2738 29.0379 38.488 29.138 38.6698C29.2382 38.8517 29.4065 38.9862 29.6059 39.044C29.8052 39.1017 30.0194 39.0779 30.2012 38.9778L35.4917 36.0657C35.5543 36.032 35.6098 35.9874 35.6693 35.9514V37.026C35.6696 37.3493 35.5832 37.6667 35.4191 37.9453C35.2551 38.2239 35.0193 38.4534 34.7364 38.61L21.7937 45.7317C21.0068 46.1536 20.1278 46.3744 19.2349 46.3744C18.3421 46.3744 17.4631 46.1536 16.6762 45.7317L10.7996 42.4995C10.7093 42.4466 10.6094 42.4123 10.5057 42.3986C10.402 42.385 10.2966 42.3923 10.1957 42.4201C10.0948 42.4478 10.0006 42.4956 9.91848 42.5604C9.83639 42.6253 9.76813 42.7059 9.71773 42.7976C9.66734 42.8893 9.63584 42.9901 9.6251 43.0942C9.61435 43.1982 9.62458 43.3034 9.65518 43.4034C9.68577 43.5035 9.73611 43.5964 9.80323 43.6766C9.87034 43.7569 9.95286 43.8228 10.0459 43.8707L15.9241 47.1036C16.939 47.6601 18.0778 47.9519 19.2353 47.9519C20.3928 47.9519 21.5316 47.6601 22.5465 47.1036L35.4917 39.9819C36.0195 39.6897 36.4593 39.2614 36.7654 38.7415C37.0715 38.2216 37.2327 37.6292 37.2322 37.026V33.0652C37.2242 32.4483 37.0458 31.8456 36.7169 31.3237C36.3879 30.8018 35.9211 30.381 35.368 30.1077L29.3521 27.0923L22.8564 3.48179C22.6615 2.77517 22.2422 2.15105 21.6617 1.70346C21.0812 1.25588 20.371 1.00908 19.638 1.00025C18.9051 0.991415 18.1891 1.22103 17.598 1.6545C17.0069 2.08797 16.5727 2.70181 16.3608 3.40353L15.9452 4.79187C15.9157 4.89033 15.9059 4.99363 15.9163 5.09588C15.9268 5.19813 15.9572 5.29733 16.006 5.3878C16.1045 5.57053 16.2715 5.70665 16.4704 5.76622C16.6692 5.82579 16.8836 5.80393 17.0663 5.70545C17.249 5.60697 17.3851 5.43993 17.4447 5.24109L17.8603 3.85431C17.9735 3.47689 18.2064 3.14655 18.5239 2.91315C18.8413 2.67975 19.2261 2.55596 19.6201 2.56047C20.0141 2.56498 20.396 2.69754 20.708 2.93814C21.0201 3.17874 21.2454 3.51432 21.3499 3.89422L23.0153 9.94848C20.6936 10.272 18.3399 10.2944 16.0125 10.015L16.5447 8.23926C16.5742 8.14081 16.584 8.0375 16.5736 7.93525C16.5632 7.833 16.5327 7.73381 16.4839 7.64333C16.4352 7.55286 16.3691 7.47287 16.2894 7.40794C16.2097 7.34301 16.118 7.29441 16.0196 7.26492C15.9211 7.23542 15.8178 7.22561 15.7156 7.23603C15.6133 7.24646 15.5141 7.27692 15.4236 7.32569C15.3332 7.37445 15.2532 7.44056 15.1882 7.52023C15.1233 7.59991 15.0747 7.69159 15.0452 7.79005L9.28053 27.0094L3.09792 30.1038C2.54405 30.3773 2.07663 30.7987 1.74736 31.3213C1.41808 31.844 1.23978 32.4475 1.23218 33.0652V37.026ZM19.2322 11.779C20.6383 11.7769 22.0423 11.6722 23.4332 11.466L24.4506 15.1779C21.7579 15.7111 18.9996 15.8306 16.2708 15.5324C16.1685 15.5213 16.0651 15.5304 15.9664 15.5593C15.8676 15.5882 15.7756 15.6362 15.6954 15.7007C15.6153 15.7652 15.5486 15.8448 15.4992 15.935C15.4498 16.0252 15.4187 16.1243 15.4076 16.2266C15.3965 16.3288 15.4056 16.4323 15.4345 16.531C15.4634 16.6297 15.5114 16.7218 15.5759 16.8019C15.6403 16.8821 15.72 16.9488 15.8102 16.9982C15.9004 17.0476 15.9995 17.0787 16.1017 17.0898C17.1413 17.2038 18.1864 17.2608 19.2322 17.2604C21.1268 17.2575 23.0165 17.0661 24.8732 16.6891L25.9313 20.552C21.6487 21.7466 17.1246 21.775 12.8273 20.6342L15.561 11.5207C16.7778 11.6864 18.0041 11.7726 19.2322 11.779ZM28.2784 33.379C25.5782 35.1086 22.4388 36.0279 19.2322 36.0279C16.0256 36.0279 12.8862 35.1086 10.186 33.379C9.90126 33.1942 9.68387 32.9223 9.56625 32.6038C9.44863 32.2854 9.43707 31.9374 9.53331 31.6119L10.6564 27.8702C13.4089 28.8291 16.3025 29.3208 19.2173 29.3251C21.4367 29.3242 23.6471 29.0428 25.7959 28.4877C25.997 28.4358 26.1693 28.3061 26.2748 28.1272C26.3804 27.9483 26.4105 27.7348 26.3586 27.5337C26.3067 27.3326 26.1771 27.1603 25.9981 27.0548C25.8192 26.9492 25.6057 26.9191 25.4046 26.971C20.6848 28.1924 15.7083 27.9816 11.1087 26.3653L12.3773 22.1392C14.6119 22.7455 16.9168 23.0539 19.2322 23.0564C21.6382 23.0514 24.0321 22.7161 26.3469 22.0601L28.9764 31.6244C29.0657 31.9531 29.0459 32.302 28.9201 32.6185C28.7942 32.935 28.569 33.2014 28.2784 33.379Z" stroke="#667989" stroke-width="0.6" mask="url(#path-1-outside-1_41_270)"/>
</svg>
