<svg width="43" height="43" viewBox="0 0 43 43" fill="none" xmlns="http://www.w3.org/2000/svg">
<mask id="mask0_41_299" style="mask-type:luminance" maskUnits="userSpaceOnUse" x="0" y="0" width="43" height="43">
<path d="M41.9999 42V1.46449H1.46436V42H41.9999Z" fill="white" stroke="white" stroke-width="2"/>
</mask>
<g mask="url(#mask0_41_299)">
<path d="M12.0486 34.9914H7.52364C7.38373 34.9915 7.24745 35.036 7.13456 35.1187C7.02166 35.2013 6.93802 35.3177 6.89574 35.4511L4.97583 41.5085C4.84124 41.9332 5.15826 42.3662 5.60372 42.3662H37.8607C38.3061 42.3662 38.6232 41.9332 38.4886 41.5085L36.5687 35.4511C36.5264 35.3177 36.4428 35.2013 36.3299 35.1187C36.217 35.036 36.0807 34.9915 35.9408 34.9914H14.8611" stroke="#667989" stroke-width="2" stroke-miterlimit="10" stroke-linecap="round" stroke-linejoin="round"/>
<path d="M14.4038 31.6781H29.0607" stroke="#667989" stroke-width="2" stroke-miterlimit="10" stroke-linecap="round" stroke-linejoin="round"/>
<path d="M38.1791 25.9384H5.28516C4.25309 25.9384 3.4165 25.1017 3.4165 24.0697V2.96685C3.4165 1.93479 4.25309 1.0982 5.28516 1.0982H38.1791C39.2111 1.0982 40.0478 1.93479 40.0478 2.96685V24.0697C40.0478 25.1017 39.2111 25.9384 38.1791 25.9384Z" stroke="#667989" stroke-width="2" stroke-miterlimit="10" stroke-linecap="round" stroke-linejoin="round"/>
<path d="M38.1791 25.9384H5.28516C4.25309 25.9384 3.4165 25.1017 3.4165 24.0697V21.1885H40.0478V24.0697C40.0478 25.1017 39.2111 25.9384 38.1791 25.9384Z" stroke="#667989" stroke-width="2" stroke-miterlimit="10" stroke-linecap="round" stroke-linejoin="round"/>
<path d="M25.305 25.9385H18.1591C18.1591 25.9385 18.0923 30.1425 17.5574 31.6781H25.9068C25.3719 30.1425 25.305 25.9385 25.305 25.9385Z" stroke="#667989" stroke-width="2" stroke-miterlimit="10" stroke-linecap="round" stroke-linejoin="round"/>
<path d="M20.4724 23.5635H22.9918" stroke="#667989" stroke-width="2" stroke-miterlimit="10" stroke-linecap="round" stroke-linejoin="round"/>
<path d="M37.1647 11.3684V21.1886H6.29932V4.69903C6.29932 4.49011 6.38231 4.28974 6.53004 4.14201C6.67777 3.99428 6.87813 3.91129 7.08705 3.91129H36.377C36.5859 3.91129 36.7863 3.99428 36.934 4.14201C37.0817 4.28974 37.1647 4.49011 37.1647 4.69903V8.5175" stroke="#667989" stroke-width="2" stroke-miterlimit="10" stroke-linecap="round" stroke-linejoin="round"/>
<path d="M18.4817 8.76192L12.011 16.3379" stroke="#667989" stroke-width="2" stroke-miterlimit="10" stroke-linecap="round" stroke-linejoin="round"/>
<path d="M13.76 10.3803L12.011 12.348" stroke="#667989" stroke-width="2" stroke-miterlimit="10" stroke-linecap="round" stroke-linejoin="round"/>
<path d="M11.2029 37.5637H12.0484" stroke="#667989" stroke-width="2" stroke-miterlimit="10" stroke-linecap="round" stroke-linejoin="round"/>
<path d="M14.585 37.5637H15.4304" stroke="#667989" stroke-width="2" stroke-miterlimit="10" stroke-linecap="round" stroke-linejoin="round"/>
<path d="M17.9668 37.5637H18.8123" stroke="#667989" stroke-width="2" stroke-miterlimit="10" stroke-linecap="round" stroke-linejoin="round"/>
<path d="M21.3489 37.5637H22.1944" stroke="#667989" stroke-width="2" stroke-miterlimit="10" stroke-linecap="round" stroke-linejoin="round"/>
<path d="M24.7307 37.5637H25.5762" stroke="#667989" stroke-width="2" stroke-miterlimit="10" stroke-linecap="round" stroke-linejoin="round"/>
<path d="M28.1128 37.5637H28.9583" stroke="#667989" stroke-width="2" stroke-miterlimit="10" stroke-linecap="round" stroke-linejoin="round"/>
<path d="M31.4158 37.5637H32.2612" stroke="#667989" stroke-width="2" stroke-miterlimit="10" stroke-linecap="round" stroke-linejoin="round"/>
<path d="M11.2029 39.7937H12.0484" stroke="#667989" stroke-width="2" stroke-miterlimit="10" stroke-linecap="round" stroke-linejoin="round"/>
<path d="M14.585 39.7937H15.4304" stroke="#667989" stroke-width="2" stroke-miterlimit="10" stroke-linecap="round" stroke-linejoin="round"/>
<path d="M17.9668 39.7937H18.8123" stroke="#667989" stroke-width="2" stroke-miterlimit="10" stroke-linecap="round" stroke-linejoin="round"/>
<path d="M21.3489 39.7937H22.1944" stroke="#667989" stroke-width="2" stroke-miterlimit="10" stroke-linecap="round" stroke-linejoin="round"/>
<path d="M24.7307 39.7937H25.5762" stroke="#667989" stroke-width="2" stroke-miterlimit="10" stroke-linecap="round" stroke-linejoin="round"/>
<path d="M28.1128 39.7937H28.9583" stroke="#667989" stroke-width="2" stroke-miterlimit="10" stroke-linecap="round" stroke-linejoin="round"/>
<path d="M31.4158 39.7937H32.2612" stroke="#667989" stroke-width="2" stroke-miterlimit="10" stroke-linecap="round" stroke-linejoin="round"/>
</g>
</svg>
